<svg width="85" height="77" viewBox="0 0 85 77" fill="none" xmlns="http://www.w3.org/2000/svg">
<path d="M42.5014 9.86417e-09C32.4094 -0.000209442 22.6466 3.33516 14.9602 9.40923C7.27371 15.4833 2.16519 23.8997 0.548778 33.1522C-1.06763 42.4048 0.913571 51.8896 6.13785 59.9095C11.3621 67.9293 19.4885 73.9608 29.0628 76.9245C31.1878 77.2719 31.9826 76.0876 31.9826 75.0495C31.9826 74.1139 31.9316 71.0033 31.9316 67.6992C21.2512 69.523 18.4887 65.2794 17.6387 63.061C16.6958 60.9007 15.2006 58.9863 13.2824 57.4832C11.7949 56.745 9.66988 54.9173 13.2272 54.8699C14.5867 55.0066 15.8906 55.4457 17.0285 56.1501C18.1664 56.8544 19.1047 57.8033 19.7637 58.9161C20.3448 59.8859 21.1263 60.7397 22.0633 61.4285C23.0003 62.1173 24.0744 62.6276 25.2241 62.9301C26.3738 63.2326 27.5765 63.3215 28.7632 63.1915C29.9499 63.0616 31.0974 62.7154 32.1398 62.1728C32.3239 60.165 33.2876 58.2878 34.8513 56.8911C25.395 55.9042 15.5137 52.5015 15.5137 37.4024C15.4535 33.4785 17.0121 29.6819 19.87 26.7915C18.5708 23.3818 18.7228 19.6398 20.295 16.3307C20.295 16.3307 23.8522 15.2965 31.9826 20.3769C38.9368 18.6003 46.2785 18.6003 53.2327 20.3769C61.3588 15.2452 64.9204 16.3307 64.9204 16.3307C66.493 19.6398 66.645 23.3818 65.3454 26.7915C68.2118 29.6769 69.7719 33.4768 69.7016 37.4024C69.7016 52.5488 59.7651 55.9042 50.313 56.8911C51.3265 57.8462 52.1069 58.9928 52.6012 60.2528C53.0954 61.5129 53.292 62.857 53.1775 64.1939C53.1775 69.4756 53.1265 73.7192 53.1265 75.0495C53.1265 76.0876 53.9213 77.3193 56.0463 76.9245C65.6029 73.936 73.7051 67.8902 78.9065 59.8665C84.1079 51.8427 86.0699 42.3632 84.4424 33.1201C82.8149 23.877 77.7037 15.4719 70.0213 9.40518C62.3388 3.3385 52.5852 0.00509249 42.5014 9.86417e-09Z" fill="white"/>
</svg>
