<svg width="484" height="248" viewBox="0 0 484 248" fill="none" xmlns="http://www.w3.org/2000/svg">
<rect y="10" width="425" height="238" rx="25" fill="url(#paint0_linear_360_125)" fill-opacity="0.4"/>
<path d="M231.407 134.62C228.204 134.951 225.285 135.298 224.973 135.393C224.208 135.614 224.18 136.118 224.803 137.932V137.932C225.085 138.812 224.68 139.329 223.761 139.426C222.99 139.508 221.959 139.615 220.836 139.729C218.512 139.966 216.386 140.218 216.103 140.313C215.593 140.455 215.564 140.975 215.564 154.6V165.497C215.564 167.266 214.102 168.686 212.333 168.634V168.634C208.479 168.508 208.196 168.587 208.196 169.801C208.196 170.511 208.139 170.574 207.544 170.574C206.467 170.574 205.929 171.047 205.929 171.961V171.961C205.929 172.414 205.561 172.781 205.109 172.781H204.313C202.414 172.781 200.997 173.113 200.147 173.775C199.552 174.216 199.552 174.343 199.467 188.961C199.41 201.844 199.354 203.689 198.985 203.689C198.645 203.689 198.56 203.468 198.56 202.758C198.56 202.159 198.418 201.765 198.163 201.655C197.88 201.528 195.471 201.481 189.661 201.513V201.513C185.186 201.539 181.538 197.93 181.516 193.455L181.499 189.891C181.414 180.177 181.357 178.143 181.017 177.78C180.45 177.165 179.09 176.755 177.22 176.629L176.407 176.574C175.955 176.543 175.604 176.167 175.604 175.714V175.714C175.604 175.257 175.463 174.816 175.264 174.705C175.037 174.579 173.45 174.516 170.021 174.516V174.516C167.323 174.516 165.129 172.34 165.106 169.642L165.062 164.219C164.977 154.694 164.948 153.89 164.466 153.496C163.701 152.849 162.738 152.581 160.867 152.487L160.096 152.444C159.575 152.415 159.167 151.984 159.167 151.462V151.462C159.167 150.61 159.11 150.531 158.43 150.389C158.033 150.295 154.462 150.232 150.438 150.232C141.822 150.232 141.879 150.232 141.879 151.556V151.556C141.879 152.023 141.51 152.406 141.044 152.425L139.867 152.471C138.478 152.534 137.628 152.66 137.118 152.865C135.503 153.527 135.503 153.433 135.418 161.853L135.371 166.114C135.35 168.061 133.765 169.628 131.818 169.628V169.628C127.766 169.628 127.709 169.643 127.709 171.063C127.709 171.615 127.624 171.851 127.426 171.741C127.284 171.662 127.114 170.321 127.085 168.76V168.76C127.038 167.178 125.744 165.918 124.161 165.913L112.603 165.875L98.7333 165.844C98.4213 165.843 98.1289 165.996 97.9515 166.253V166.253C97.7814 166.505 97.6681 175.746 97.6681 191.704V214.012C97.6681 215.538 96.4449 216.782 94.9191 216.809V216.809V216.809C93.3752 216.835 92.135 218.09 92.1265 219.634L92.0567 232.436V232.436C92.0254 241.023 98.9775 248 107.564 248H258.5H399.952C413.778 248 424.978 236.778 424.952 222.952L424.943 218.717L424.899 203.588C424.877 195.74 418.536 189.376 410.688 189.323V189.323C402.894 189.276 396.291 189.292 396.036 189.371C395.554 189.497 395.526 190.064 395.526 198.012V201.794C395.526 204.408 393.407 206.527 390.793 206.527V206.527C388.157 206.527 385.862 206.59 385.635 206.669C385.408 206.748 385.182 207.174 385.097 207.694V207.694C385.032 208.199 384.602 208.577 384.093 208.577H383.935C381.979 208.593 380.676 208.845 379.797 209.413V209.413C379.431 209.651 378.947 209.388 378.947 208.951V197.586C378.947 185.523 378.947 185.207 378.408 184.987C378.012 184.829 377.02 184.766 375.121 184.766V184.766C373.597 184.766 372.357 183.541 372.338 182.017L372.202 171.015C372.088 163.462 372.003 155.12 372.003 152.502C372.003 147.929 371.975 147.709 371.465 147.551C371.097 147.456 366.25 147.393 357.663 147.393H344.428L338.788 147.945C335.699 148.245 332.922 148.592 332.61 148.686C331.93 148.923 331.902 149.38 332.44 150.941V150.941C332.719 151.677 332.366 152.144 331.584 152.229C331.007 152.291 330.267 152.37 329.464 152.455C325.242 152.865 324.448 153.023 324.221 153.433C324.108 153.622 324.08 157.643 324.136 162.374L324.225 169.125C324.239 170.147 323.429 170.989 322.408 171.015V171.015C321.416 171.047 320.424 171.141 320.225 171.236C319.942 171.362 319.857 172.86 319.857 178.238C319.857 182.7 319.772 185.081 319.574 185.081C319.404 185.081 319.29 184.198 319.29 182.732C319.29 180.95 319.205 180.351 318.893 180.209C318.638 180.083 314.557 180.051 304.241 180.067L296.219 180.093C292.744 180.105 289.92 182.9 289.873 186.374V186.374L289.842 189.817C289.828 191.386 288.551 192.65 286.982 192.65V192.65V192.65C285.417 192.65 284.148 191.382 284.148 189.816V180.698V169.395C284.148 168.987 283.918 168.613 283.553 168.429V168.429C282.986 168.145 282.533 168.13 276.184 168.177V168.177C272.454 168.212 269.411 165.197 269.411 161.466V151.43C269.411 134.825 269.411 134.62 268.844 134.305C268.277 133.989 267.909 133.989 252.775 134.005L237.245 134.021L231.407 134.62Z" fill="#010011"/>
<rect x="348" y="20" width="127" height="50" rx="25" fill="#164E03"/>
<rect x="358" y="26" width="108" height="38" rx="19" fill="#33731E"/>
<path d="M368.612 47.316C368.072 46.776 367.808 46.104 367.808 45.3C367.808 44.496 368.072 43.824 368.612 43.284C369.152 42.744 369.824 42.48 370.628 42.48C371.432 42.48 372.092 42.744 372.632 43.284C373.172 43.824 373.448 44.496 373.448 45.3C373.448 46.104 373.172 46.776 372.632 47.316C372.092 47.856 371.432 48.12 370.628 48.12C369.824 48.12 369.152 47.856 368.612 47.316ZM369.272 43.92C368.912 44.292 368.732 44.748 368.732 45.3C368.732 45.852 368.912 46.308 369.272 46.68C369.632 47.052 370.088 47.232 370.628 47.232C371.168 47.232 371.624 47.052 371.984 46.68C372.344 46.308 372.524 45.852 372.524 45.3C372.524 44.748 372.344 44.292 371.984 43.92C371.624 43.548 371.168 43.368 370.628 43.368C370.088 43.368 369.632 43.548 369.272 43.92ZM375.546 50.7H374.67V42.6H375.546V43.344C376.062 42.768 376.71 42.48 377.502 42.48C378.258 42.48 378.894 42.756 379.398 43.296C379.914 43.836 380.166 44.496 380.166 45.3C380.166 46.104 379.914 46.776 379.398 47.316C378.894 47.856 378.258 48.12 377.502 48.12C376.71 48.12 376.062 47.832 375.546 47.256V50.7ZM378.714 43.92C378.366 43.548 377.922 43.368 377.406 43.368C376.89 43.368 376.446 43.548 376.098 43.92C375.75 44.292 375.57 44.748 375.57 45.3C375.57 45.852 375.75 46.308 376.098 46.68C376.446 47.052 376.89 47.232 377.406 47.232C377.922 47.232 378.366 47.052 378.714 46.68C379.074 46.308 379.254 45.852 379.254 45.3C379.254 44.748 379.074 44.292 378.714 43.92ZM386.641 45.6H382.009C382.069 46.092 382.285 46.488 382.645 46.812C383.017 47.136 383.461 47.292 383.977 47.292C384.661 47.292 385.201 47.028 385.573 46.512L386.425 46.788C385.933 47.604 385.033 48.12 383.977 48.12C383.149 48.12 382.465 47.856 381.913 47.316C381.373 46.776 381.097 46.104 381.097 45.3C381.097 44.496 381.361 43.836 381.901 43.296C382.441 42.756 383.101 42.48 383.893 42.48C384.673 42.48 385.333 42.756 385.861 43.296C386.401 43.836 386.665 44.496 386.665 45.3C386.665 45.432 386.653 45.54 386.641 45.6ZM382.021 44.892H385.753C385.573 43.968 384.829 43.308 383.869 43.308C382.945 43.308 382.201 43.968 382.021 44.892ZM387.819 48V42.6H388.695V43.5C389.091 42.816 389.727 42.48 390.603 42.48C391.239 42.48 391.755 42.684 392.163 43.092C392.583 43.5 392.787 44.016 392.787 44.628V48H391.899V44.868C391.899 43.992 391.239 43.332 390.363 43.332C389.895 43.332 389.499 43.476 389.175 43.776C388.851 44.076 388.695 44.436 388.695 44.88V48H387.819ZM397.44 48V39.3H398.316V43.344C398.832 42.768 399.48 42.48 400.272 42.48C401.028 42.48 401.664 42.756 402.168 43.296C402.684 43.836 402.936 44.496 402.936 45.3C402.936 46.104 402.684 46.776 402.168 47.316C401.664 47.856 401.028 48.12 400.272 48.12C399.48 48.12 398.832 47.832 398.316 47.256V48H397.44ZM401.484 43.92C401.136 43.548 400.692 43.368 400.176 43.368C399.66 43.368 399.216 43.548 398.868 43.92C398.52 44.292 398.34 44.748 398.34 45.3C398.34 45.852 398.52 46.308 398.868 46.68C399.216 47.052 399.66 47.232 400.176 47.232C400.692 47.232 401.136 47.052 401.484 46.68C401.844 46.308 402.024 45.852 402.024 45.3C402.024 44.748 401.844 44.292 401.484 43.92ZM404.13 45.972V42.6H405.018V45.732C405.018 46.608 405.678 47.268 406.554 47.268C407.022 47.268 407.418 47.124 407.73 46.824C408.054 46.524 408.21 46.164 408.21 45.72V42.6H409.098V48H408.21V47.112C407.802 47.784 407.166 48.12 406.302 48.12C405.678 48.12 405.162 47.916 404.742 47.508C404.334 47.1 404.13 46.584 404.13 45.972ZM411.499 48H410.611V42.6H411.499V48ZM410.443 40.836C410.383 40.056 411.727 40.056 411.655 40.836C411.655 41.184 411.403 41.448 411.055 41.448C410.707 41.448 410.443 41.208 410.443 40.836ZM413.878 48H413.002V39.3H413.878V48ZM417.769 42.48C418.561 42.48 419.209 42.768 419.725 43.344V39.3H420.601V48H419.725V47.256C419.209 47.832 418.561 48.12 417.769 48.12C417.013 48.12 416.377 47.856 415.861 47.316C415.357 46.776 415.105 46.104 415.105 45.3C415.105 44.496 415.357 43.836 415.861 43.296C416.377 42.756 417.013 42.48 417.769 42.48ZM419.173 43.92C418.825 43.548 418.381 43.368 417.865 43.368C417.349 43.368 416.905 43.548 416.557 43.92C416.209 44.292 416.029 44.748 416.029 45.3C416.029 45.852 416.209 46.308 416.557 46.68C416.905 47.052 417.349 47.232 417.865 47.232C418.381 47.232 418.825 47.052 419.173 46.68C419.521 46.308 419.701 45.852 419.701 45.3C419.701 44.748 419.521 44.292 419.173 43.92ZM422.996 48H422.108V42.6H422.996V48ZM421.94 40.836C421.88 40.056 423.224 40.056 423.152 40.836C423.152 41.184 422.9 41.448 422.552 41.448C422.204 41.448 421.94 41.208 421.94 40.836ZM424.498 48V42.6H425.374V43.5C425.77 42.816 426.406 42.48 427.282 42.48C427.918 42.48 428.434 42.684 428.842 43.092C429.262 43.5 429.466 44.016 429.466 44.628V48H428.578V44.868C428.578 43.992 427.918 43.332 427.042 43.332C426.574 43.332 426.178 43.476 425.854 43.776C425.53 44.076 425.374 44.436 425.374 44.88V48H424.498ZM433.331 48.12C432.575 48.12 431.939 47.856 431.423 47.316C430.919 46.776 430.667 46.104 430.667 45.3C430.667 44.496 430.919 43.836 431.423 43.296C431.939 42.756 432.575 42.48 433.331 42.48C434.123 42.48 434.771 42.768 435.287 43.344V42.6H436.163V48.096C436.163 48.876 435.899 49.524 435.371 50.04C434.855 50.556 434.195 50.82 433.415 50.82C432.323 50.82 431.327 50.244 430.907 49.392L431.795 49.116C432.071 49.608 432.707 49.944 433.379 49.944C433.919 49.944 434.375 49.764 434.747 49.416C435.119 49.068 435.299 48.624 435.287 48.096V47.256C434.771 47.832 434.123 48.12 433.331 48.12ZM434.735 43.92C434.387 43.548 433.943 43.368 433.427 43.368C432.911 43.368 432.467 43.548 432.119 43.92C431.771 44.292 431.591 44.748 431.591 45.3C431.591 45.852 431.771 46.308 432.119 46.68C432.467 47.052 432.911 47.232 433.427 47.232C433.943 47.232 434.387 47.052 434.735 46.68C435.083 46.308 435.263 45.852 435.263 45.3C435.263 44.748 435.083 44.292 434.735 43.92ZM440.834 48V39.3H441.71V43.5C442.13 42.816 442.778 42.48 443.642 42.48C444.278 42.48 444.794 42.684 445.202 43.104C445.622 43.512 445.826 44.028 445.826 44.64V48H444.938V44.868C444.938 43.992 444.266 43.332 443.39 43.332C442.922 43.332 442.514 43.476 442.19 43.776C441.866 44.076 441.71 44.436 441.71 44.88V48H440.834ZM447.22 45.972V42.6H448.108V45.732C448.108 46.608 448.768 47.268 449.644 47.268C450.112 47.268 450.508 47.124 450.82 46.824C451.144 46.524 451.3 46.164 451.3 45.72V42.6H452.188V48H451.3V47.112C450.892 47.784 450.256 48.12 449.392 48.12C448.768 48.12 448.252 47.916 447.832 47.508C447.424 47.1 447.22 46.584 447.22 45.972ZM453.701 48V39.3H454.577V43.344C455.093 42.768 455.741 42.48 456.533 42.48C457.289 42.48 457.925 42.756 458.429 43.296C458.945 43.836 459.197 44.496 459.197 45.3C459.197 46.104 458.945 46.776 458.429 47.316C457.925 47.856 457.289 48.12 456.533 48.12C455.741 48.12 455.093 47.832 454.577 47.256V48H453.701ZM457.745 43.92C457.397 43.548 456.953 43.368 456.437 43.368C455.921 43.368 455.477 43.548 455.129 43.92C454.781 44.292 454.601 44.748 454.601 45.3C454.601 45.852 454.781 46.308 455.129 46.68C455.477 47.052 455.921 47.232 456.437 47.232C456.953 47.232 457.397 47.052 457.745 46.68C458.105 46.308 458.285 45.852 458.285 45.3C458.285 44.748 458.105 44.292 457.745 43.92Z" fill="white"/>
<rect x="357" y="86" width="127" height="50" rx="25" fill="#164E03"/>
<rect x="367" y="92" width="108" height="38" rx="19" fill="#33731E"/>
<path d="M383.947 114H382.925V103.85H383.947V114ZM391.846 111.2H386.442C386.512 111.774 386.764 112.236 387.184 112.614C387.618 112.992 388.136 113.174 388.738 113.174C389.536 113.174 390.166 112.866 390.6 112.264L391.594 112.586C391.02 113.538 389.97 114.14 388.738 114.14C387.772 114.14 386.974 113.832 386.33 113.202C385.7 112.572 385.378 111.788 385.378 110.85C385.378 109.912 385.686 109.142 386.316 108.512C386.946 107.882 387.716 107.56 388.64 107.56C389.55 107.56 390.32 107.882 390.936 108.512C391.566 109.142 391.874 109.912 391.874 110.85C391.874 111.004 391.86 111.13 391.846 111.2ZM386.456 110.374H390.81C390.6 109.296 389.732 108.526 388.612 108.526C387.534 108.526 386.666 109.296 386.456 110.374ZM395.992 107.56C396.916 107.56 397.672 107.896 398.274 108.568V107.7H399.31V114H398.274V113.132C397.672 113.804 396.916 114.14 395.992 114.14C395.11 114.14 394.368 113.832 393.766 113.202C393.178 112.572 392.884 111.788 392.884 110.85C392.884 109.912 393.178 109.142 393.766 108.512C394.368 107.882 395.11 107.56 395.992 107.56ZM397.63 109.24C397.224 108.806 396.706 108.596 396.104 108.596C395.502 108.596 394.984 108.806 394.578 109.24C394.172 109.674 393.962 110.206 393.962 110.85C393.962 111.494 394.172 112.026 394.578 112.46C394.984 112.894 395.502 113.104 396.104 113.104C396.706 113.104 397.224 112.894 397.63 112.46C398.036 112.026 398.246 111.494 398.246 110.85C398.246 110.206 398.036 109.674 397.63 109.24ZM405.338 109.072L404.372 109.254C404.246 108.792 403.742 108.47 403.028 108.47C402.342 108.47 401.824 108.792 401.824 109.282C401.824 109.618 402.048 109.87 402.496 110.024L404.022 110.57C404.988 110.92 405.464 111.494 405.464 112.292C405.464 113.468 404.456 114.14 403.098 114.14C401.74 114.14 400.816 113.482 400.648 112.474L401.628 112.32C401.74 112.866 402.314 113.23 403.112 113.23C403.896 113.23 404.47 112.866 404.47 112.32C404.47 111.956 404.19 111.676 403.644 111.48L402.16 110.962C401.278 110.64 400.83 110.108 400.83 109.366C400.83 108.204 401.768 107.56 403.098 107.56C404.33 107.56 405.17 108.162 405.338 109.072ZM413.01 111.2H407.606C407.676 111.774 407.928 112.236 408.348 112.614C408.782 112.992 409.3 113.174 409.902 113.174C410.7 113.174 411.33 112.866 411.764 112.264L412.758 112.586C412.184 113.538 411.134 114.14 409.902 114.14C408.936 114.14 408.138 113.832 407.494 113.202C406.864 112.572 406.542 111.788 406.542 110.85C406.542 109.912 406.85 109.142 407.48 108.512C408.11 107.882 408.88 107.56 409.804 107.56C410.714 107.56 411.484 107.882 412.1 108.512C412.73 109.142 413.038 109.912 413.038 110.85C413.038 111.004 413.024 111.13 413.01 111.2ZM407.62 110.374H411.974C411.764 109.296 410.896 108.526 409.776 108.526C408.698 108.526 407.83 109.296 407.62 110.374ZM419.097 110.444V114H418.075V107.7H419.097V108.764C419.573 107.966 420.315 107.56 421.323 107.56H421.505V108.708C421.365 108.666 421.211 108.638 421.043 108.638C420.497 108.638 420.035 108.806 419.657 109.156C419.279 109.506 419.097 109.926 419.097 110.444ZM423.025 113.202C422.395 112.572 422.087 111.788 422.087 110.85C422.087 109.912 422.395 109.128 423.025 108.498C423.655 107.868 424.439 107.56 425.377 107.56C426.315 107.56 427.085 107.868 427.715 108.498C428.345 109.128 428.667 109.912 428.667 110.85C428.667 111.788 428.345 112.572 427.715 113.202C427.085 113.832 426.315 114.14 425.377 114.14C424.439 114.14 423.655 113.832 423.025 113.202ZM423.795 109.24C423.375 109.674 423.165 110.206 423.165 110.85C423.165 111.494 423.375 112.026 423.795 112.46C424.215 112.894 424.747 113.104 425.377 113.104C426.007 113.104 426.539 112.894 426.959 112.46C427.379 112.026 427.589 111.494 427.589 110.85C427.589 110.206 427.379 109.674 426.959 109.24C426.539 108.806 426.007 108.596 425.377 108.596C424.747 108.596 424.215 108.806 423.795 109.24ZM430.695 113.202C430.065 112.572 429.757 111.788 429.757 110.85C429.757 109.912 430.065 109.128 430.695 108.498C431.325 107.868 432.109 107.56 433.047 107.56C433.985 107.56 434.755 107.868 435.385 108.498C436.015 109.128 436.337 109.912 436.337 110.85C436.337 111.788 436.015 112.572 435.385 113.202C434.755 113.832 433.985 114.14 433.047 114.14C432.109 114.14 431.325 113.832 430.695 113.202ZM431.465 109.24C431.045 109.674 430.835 110.206 430.835 110.85C430.835 111.494 431.045 112.026 431.465 112.46C431.885 112.894 432.417 113.104 433.047 113.104C433.677 113.104 434.209 112.894 434.629 112.46C435.049 112.026 435.259 111.494 435.259 110.85C435.259 110.206 435.049 109.674 434.629 109.24C434.209 108.806 433.677 108.596 433.047 108.596C432.417 108.596 431.885 108.806 431.465 109.24ZM439.136 105.838V107.7H440.802V108.61H439.136V114H438.1V108.61H437.05V107.7H438.1V105.712C438.1 105.194 438.282 104.746 438.632 104.396C438.982 104.032 439.43 103.85 439.962 103.85H440.802V104.844H440.032C439.514 104.844 439.136 105.264 439.136 105.838ZM441.219 108.61V107.7H442.241V106.398H443.263V107.7H445.055V108.61H443.263V112.012C443.263 112.586 443.655 113.006 444.173 113.006H445.055V114H444.103C443.571 114 443.123 113.818 442.773 113.468C442.423 113.104 442.241 112.656 442.241 112.138V108.61H441.219ZM446.937 113.202C446.307 112.572 445.999 111.788 445.999 110.85C445.999 109.912 446.307 109.128 446.937 108.498C447.567 107.868 448.351 107.56 449.289 107.56C450.227 107.56 450.997 107.868 451.627 108.498C452.257 109.128 452.579 109.912 452.579 110.85C452.579 111.788 452.257 112.572 451.627 113.202C450.997 113.832 450.227 114.14 449.289 114.14C448.351 114.14 447.567 113.832 446.937 113.202ZM447.707 109.24C447.287 109.674 447.077 110.206 447.077 110.85C447.077 111.494 447.287 112.026 447.707 112.46C448.127 112.894 448.659 113.104 449.289 113.104C449.919 113.104 450.451 112.894 450.871 112.46C451.291 112.026 451.501 111.494 451.501 110.85C451.501 110.206 451.291 109.674 450.871 109.24C450.451 108.806 449.919 108.596 449.289 108.596C448.659 108.596 448.127 108.806 447.707 109.24ZM455.027 117.15H454.005V107.7H455.027V108.568C455.629 107.896 456.385 107.56 457.309 107.56C458.191 107.56 458.933 107.882 459.521 108.512C460.123 109.142 460.417 109.912 460.417 110.85C460.417 111.788 460.123 112.572 459.521 113.202C458.933 113.832 458.191 114.14 457.309 114.14C456.385 114.14 455.629 113.804 455.027 113.132V117.15ZM458.723 109.24C458.317 108.806 457.799 108.596 457.197 108.596C456.595 108.596 456.077 108.806 455.671 109.24C455.265 109.674 455.055 110.206 455.055 110.85C455.055 111.494 455.265 112.026 455.671 112.46C456.077 112.894 456.595 113.104 457.197 113.104C457.799 113.104 458.317 112.894 458.723 112.46C459.143 112.026 459.353 111.494 459.353 110.85C459.353 110.206 459.143 109.674 458.723 109.24Z" fill="white"/>
<rect x="77" y="6" width="127" height="50" rx="25" fill="#164E03"/>
<rect x="87" y="12" width="108" height="38" rx="19" fill="#33731E"/>
<path d="M110.182 29.528L108.566 29.8C108.438 29.32 108.022 29.08 107.302 29.08C106.726 29.08 106.294 29.304 106.294 29.704C106.294 29.944 106.502 30.152 106.934 30.296L108.406 30.792C109.734 31.256 110.294 31.912 110.294 32.952C110.294 34.424 109.11 35.208 107.446 35.208C105.718 35.208 104.646 34.392 104.454 33.096L106.07 32.856C106.214 33.416 106.694 33.704 107.494 33.704C108.15 33.704 108.646 33.448 108.646 33.016C108.646 32.728 108.374 32.488 107.846 32.312L106.374 31.848C105.158 31.448 104.646 30.856 104.646 29.832C104.646 28.344 105.782 27.592 107.43 27.592C108.982 27.592 110.006 28.328 110.182 29.528ZM118.711 32.04H112.999C113.255 32.984 114.087 33.624 115.111 33.624C115.799 33.624 116.359 33.368 116.791 32.856L118.471 33.352C117.815 34.488 116.567 35.208 115.111 35.208C114.007 35.208 113.079 34.84 112.327 34.12C111.575 33.4 111.207 32.488 111.207 31.4C111.207 30.328 111.575 29.416 112.295 28.696C113.015 27.96 113.927 27.592 114.999 27.592C116.071 27.592 116.951 27.96 117.671 28.696C118.391 29.416 118.759 30.328 118.759 31.4C118.759 31.624 118.743 31.832 118.711 32.04ZM113.015 30.696H116.983C116.711 29.8 115.927 29.176 114.967 29.176C114.055 29.176 113.271 29.8 113.015 30.696ZM121.644 35H119.916V23.4H121.644V35ZM124.91 35H123.182V23.4H124.91V35ZM137.648 32.04H131.936C132.192 32.984 133.024 33.624 134.048 33.624C134.736 33.624 135.296 33.368 135.728 32.856L137.408 33.352C136.752 34.488 135.504 35.208 134.048 35.208C132.944 35.208 132.016 34.84 131.264 34.12C130.512 33.4 130.144 32.488 130.144 31.4C130.144 30.328 130.512 29.416 131.232 28.696C131.952 27.96 132.864 27.592 133.936 27.592C135.008 27.592 135.888 27.96 136.608 28.696C137.328 29.416 137.696 30.328 137.696 31.4C137.696 31.624 137.68 31.832 137.648 32.04ZM131.952 30.696H135.92C135.648 29.8 134.864 29.176 133.904 29.176C132.992 29.176 132.208 29.8 131.952 30.696ZM138.854 35V27.8H140.582V28.68C141.11 27.96 141.83 27.592 142.742 27.592C143.558 27.592 144.246 27.864 144.774 28.392C145.318 28.92 145.59 29.592 145.59 30.392V35H143.862V30.888C143.862 29.944 143.174 29.24 142.23 29.24C141.318 29.24 140.582 29.976 140.582 30.888V35H138.854ZM154.352 32.04H148.64C148.896 32.984 149.728 33.624 150.752 33.624C151.44 33.624 152 33.368 152.432 32.856L154.112 33.352C153.456 34.488 152.208 35.208 150.752 35.208C149.648 35.208 148.72 34.84 147.968 34.12C147.216 33.4 146.848 32.488 146.848 31.4C146.848 30.328 147.216 29.416 147.936 28.696C148.656 27.96 149.568 27.592 150.64 27.592C151.712 27.592 152.592 27.96 153.312 28.696C154.032 29.416 154.4 30.328 154.4 31.4C154.4 31.624 154.384 31.832 154.352 32.04ZM148.656 30.696H152.624C152.352 29.8 151.568 29.176 150.608 29.176C149.696 29.176 148.912 29.8 148.656 30.696ZM157.285 27.8V28.68C157.813 27.96 158.533 27.592 159.445 27.592C159.557 27.592 159.621 27.592 159.669 27.608V29.512C159.429 29.416 159.189 29.368 158.949 29.368C158.005 29.368 157.285 30.088 157.285 31.032V35H155.557V27.8H157.285ZM160.176 31.4C160.176 30.328 160.512 29.416 161.184 28.696C161.856 27.96 162.688 27.592 163.696 27.592C164.528 27.592 165.248 27.848 165.872 28.376V27.8H167.584V35.208C167.584 36.232 167.232 37.08 166.544 37.768C165.856 38.456 164.992 38.808 163.968 38.808C163.184 38.808 162.448 38.6 161.776 38.184C161.12 37.768 160.656 37.24 160.416 36.6L162.16 36.12C162.4 36.68 163.136 37.096 163.904 37.096C164.464 37.096 164.928 36.92 165.296 36.552C165.68 36.2 165.872 35.752 165.872 35.224V34.424C165.248 34.952 164.528 35.208 163.696 35.208C162.688 35.208 161.856 34.84 161.184 34.12C160.512 33.4 160.176 32.488 160.176 31.4ZM165.28 29.928C164.912 29.528 164.448 29.32 163.904 29.32C163.36 29.32 162.896 29.528 162.528 29.928C162.16 30.328 161.968 30.808 161.968 31.4C161.968 31.992 162.16 32.488 162.528 32.888C162.896 33.288 163.36 33.48 163.904 33.48C164.448 33.48 164.912 33.288 165.28 32.888C165.648 32.488 165.84 31.992 165.84 31.4C165.84 30.808 165.648 30.328 165.28 29.928ZM170.992 35.576L171.28 34.84L168.496 27.8H170.288L172.128 32.664L174.016 27.8H175.792L172.448 36.152C171.792 37.832 170.784 38.6 169.2 38.6H168.96V36.952H169.2C170.032 36.952 170.624 36.488 170.992 35.576Z" fill="white"/>
<path d="M109 45C109 44.4477 108.552 44 108 44C107.448 44 107 44.4477 107 45H109ZM107.293 62.7071C107.683 63.0976 108.317 63.0976 108.707 62.7071L115.071 56.3431C115.462 55.9526 115.462 55.3195 115.071 54.9289C114.681 54.5384 114.047 54.5384 113.657 54.9289L108 60.5858L102.343 54.9289C101.953 54.5384 101.319 54.5384 100.929 54.9289C100.538 55.3195 100.538 55.9526 100.929 56.3431L107.293 62.7071ZM107 45V62H109V45H107Z" fill="white"/>
<path d="M158 62C158 62.5523 158.448 63 159 63C159.552 63 160 62.5523 160 62H158ZM159.707 44.2929C159.317 43.9024 158.683 43.9024 158.293 44.2929L151.929 50.6569C151.538 51.0474 151.538 51.6805 151.929 52.0711C152.319 52.4616 152.953 52.4616 153.343 52.0711L159 46.4142L164.657 52.0711C165.047 52.4616 165.681 52.4616 166.071 52.0711C166.462 51.6805 166.462 51.0474 166.071 50.6569L159.707 44.2929ZM160 62V45H158V62H160Z" fill="white"/>
<path d="M119.055 55.2031C119.055 55.1302 119.073 55.0495 119.109 54.9609C119.146 54.8672 119.193 54.7812 119.25 54.7031C119.307 54.6198 119.372 54.5521 119.445 54.5C119.523 54.4427 119.599 54.4141 119.672 54.4141C119.766 54.4141 119.849 54.4349 119.922 54.4766C119.995 54.5182 120.062 54.5781 120.125 54.6562C120.193 54.7344 120.258 54.8307 120.32 54.9453C120.388 55.0599 120.464 55.1901 120.547 55.3359C120.646 55.4141 120.763 55.4896 120.898 55.5625C121.039 55.6302 121.185 55.6901 121.336 55.7422C121.487 55.7891 121.641 55.8281 121.797 55.8594C121.958 55.8906 122.107 55.9062 122.242 55.9062C122.31 55.9062 122.354 55.8828 122.375 55.8359C122.401 55.7891 122.414 55.7214 122.414 55.6328C122.414 55.5234 122.417 55.4271 122.422 55.3438C122.427 55.2604 122.43 55.1536 122.43 55.0234C122.43 54.888 122.427 54.7109 122.422 54.4922C122.417 54.2734 122.404 53.9792 122.383 53.6094C121.82 53.4896 121.341 53.3594 120.945 53.2188C120.549 53.0781 120.224 52.9141 119.969 52.7266C119.714 52.5391 119.526 52.3203 119.406 52.0703C119.292 51.8151 119.234 51.5156 119.234 51.1719C119.234 50.9115 119.271 50.6536 119.344 50.3984C119.422 50.138 119.529 49.8906 119.664 49.6562C119.799 49.4219 119.958 49.2083 120.141 49.0156C120.323 48.8177 120.521 48.651 120.734 48.5156C120.901 48.4115 121.094 48.3203 121.312 48.2422C121.536 48.1589 121.818 48.0651 122.156 47.9609C122.156 47.8255 122.154 47.7109 122.148 47.6172C122.148 47.5234 122.148 47.4323 122.148 47.3438C122.148 47.1719 122.156 47.0104 122.172 46.8594C122.188 46.7083 122.221 46.5755 122.273 46.4609C122.331 46.3411 122.411 46.2474 122.516 46.1797C122.625 46.112 122.771 46.0781 122.953 46.0781C123 46.0781 123.06 46.0938 123.133 46.125C123.206 46.1562 123.276 46.2005 123.344 46.2578C123.411 46.3151 123.469 46.388 123.516 46.4766C123.568 46.5651 123.594 46.6667 123.594 46.7812V47.9062C123.724 47.9219 123.862 47.9479 124.008 47.9844C124.159 48.0156 124.302 48.0521 124.438 48.0938C124.578 48.1354 124.703 48.1797 124.812 48.2266C124.927 48.2682 125.013 48.3047 125.07 48.3359C125.247 48.4349 125.404 48.5625 125.539 48.7188C125.674 48.875 125.789 49.0495 125.883 49.2422C125.977 49.4297 126.047 49.6302 126.094 49.8438C126.146 50.0521 126.172 50.2604 126.172 50.4688C126.172 50.5 126.161 50.5521 126.141 50.625C126.125 50.6927 126.094 50.763 126.047 50.8359C126.005 50.9089 125.948 50.974 125.875 51.0312C125.807 51.0833 125.721 51.1094 125.617 51.1094C125.435 51.1094 125.297 51.0651 125.203 50.9766C125.115 50.888 125.044 50.776 124.992 50.6406C124.94 50.5052 124.893 50.3594 124.852 50.2031C124.815 50.0417 124.755 49.8932 124.672 49.7578C124.589 49.6172 124.471 49.4974 124.32 49.3984C124.169 49.2995 123.956 49.2448 123.68 49.2344C123.68 49.5781 123.68 49.9193 123.68 50.2578C123.68 50.5911 123.68 50.9036 123.68 51.1953C123.685 51.487 123.69 51.7526 123.695 51.9922C123.706 52.2266 123.716 52.4167 123.727 52.5625C124.122 52.6302 124.51 52.7318 124.891 52.8672C125.276 53.0026 125.62 53.1823 125.922 53.4062C126.229 53.625 126.477 53.8906 126.664 54.2031C126.852 54.5104 126.945 54.875 126.945 55.2969C126.945 55.599 126.891 55.8594 126.781 56.0781C126.677 56.2917 126.536 56.4714 126.359 56.6172C126.188 56.763 125.99 56.8802 125.766 56.9688C125.547 57.0521 125.323 57.1172 125.094 57.1641C124.865 57.2057 124.641 57.237 124.422 57.2578C124.208 57.2734 124.018 57.2865 123.852 57.2969V58.6875C123.852 58.7708 123.82 58.8438 123.758 58.9062C123.695 58.974 123.622 59.0286 123.539 59.0703C123.461 59.112 123.38 59.1432 123.297 59.1641C123.214 59.1901 123.151 59.2031 123.109 59.2031C123.094 59.2031 123.044 59.1953 122.961 59.1797C122.878 59.1693 122.789 59.1432 122.695 59.1016C122.602 59.0651 122.516 59.013 122.438 58.9453C122.365 58.8828 122.328 58.7969 122.328 58.6875V57.2266C122.255 57.2057 122.122 57.1823 121.93 57.1562C121.742 57.125 121.526 57.0833 121.281 57.0312C121.036 56.974 120.784 56.901 120.523 56.8125C120.263 56.7188 120.023 56.6016 119.805 56.4609C119.586 56.3151 119.406 56.1406 119.266 55.9375C119.125 55.7344 119.055 55.4896 119.055 55.2031ZM120.586 51.3359C120.586 51.4557 120.646 51.5703 120.766 51.6797C120.885 51.7839 121.034 51.8776 121.211 51.9609C121.393 52.0443 121.586 52.1146 121.789 52.1719C121.997 52.224 122.185 52.2604 122.352 52.2812C122.352 52.2396 122.354 52.1849 122.359 52.1172C122.365 52.0495 122.367 51.974 122.367 51.8906C122.367 51.7708 122.367 51.6328 122.367 51.4766C122.372 51.3151 122.37 51.1302 122.359 50.9219C122.354 50.7135 122.341 50.4792 122.32 50.2188C122.305 49.9531 122.279 49.6562 122.242 49.3281C122.029 49.3542 121.823 49.4271 121.625 49.5469C121.427 49.6615 121.25 49.8099 121.094 49.9922C120.943 50.1693 120.82 50.375 120.727 50.6094C120.633 50.8385 120.586 51.0807 120.586 51.3359ZM123.852 55.9844C123.966 55.9844 124.117 55.974 124.305 55.9531C124.492 55.9323 124.677 55.8958 124.859 55.8438C125.042 55.7917 125.198 55.7214 125.328 55.6328C125.464 55.5443 125.531 55.4323 125.531 55.2969C125.531 55.0625 125.479 54.8594 125.375 54.6875C125.276 54.5104 125.146 54.362 124.984 54.2422C124.823 54.1224 124.641 54.0234 124.438 53.9453C124.24 53.8672 124.044 53.8073 123.852 53.7656V55.9844Z" fill="white"/>
<path d="M177.331 56.7734C177.331 56.8027 177.321 56.832 177.301 56.8613C177.292 56.8809 177.282 56.9053 177.272 56.9346C177.262 57.0322 177.248 57.0908 177.228 57.1104C177.218 57.2178 177.204 57.2764 177.184 57.2861C177.174 57.2959 177.179 57.3105 177.199 57.3301C177.16 57.3496 177.135 57.3887 177.125 57.4473C177.116 57.4961 177.101 57.5449 177.082 57.5938C177.062 57.6426 177.042 57.6914 177.023 57.7402C177.013 57.7793 176.999 57.8184 176.979 57.8574C176.969 57.9258 176.964 57.9697 176.964 57.9893C176.964 57.999 176.955 58.0137 176.935 58.0332L176.847 58.209C176.847 58.2578 176.837 58.2969 176.818 58.3262C176.798 58.3555 176.793 58.3896 176.803 58.4287C176.735 58.5557 176.696 58.668 176.686 58.7656C176.598 58.8438 176.549 58.9023 176.54 58.9414C176.461 59 176.417 59.0342 176.408 59.0439C176.408 59.0537 176.403 59.0635 176.393 59.0732C176.354 59.0732 176.325 59.0781 176.305 59.0879C176.286 59.1074 176.256 59.1172 176.217 59.1172C176.12 59.1367 176.051 59.1562 176.012 59.1758C175.954 59.1855 175.915 59.1953 175.895 59.2051C175.875 59.2148 175.856 59.2246 175.836 59.2344C175.807 59.2344 175.778 59.2295 175.749 59.2197C175.719 59.2197 175.68 59.2197 175.631 59.2197C175.592 59.2197 175.553 59.2246 175.514 59.2344C175.475 59.2441 175.436 59.249 175.397 59.249C175.319 59.2393 175.27 59.2344 175.25 59.2344C175.231 59.2441 175.211 59.249 175.192 59.249C175.084 59.2295 175.016 59.2197 174.987 59.2197C174.958 59.2295 174.928 59.2344 174.899 59.2344C174.792 59.2148 174.733 59.2051 174.723 59.2051C174.723 59.2148 174.718 59.2197 174.708 59.2197C174.591 59.21 174.494 59.1953 174.416 59.1758C174.347 59.1855 174.298 59.1855 174.269 59.1758C174.24 59.166 174.21 59.1758 174.181 59.2051C174.093 59.1953 174.04 59.1807 174.02 59.1611C174.01 59.1514 174 59.1562 173.991 59.1758C173.874 59.1172 173.795 59.083 173.756 59.0732C173.727 59.0732 173.703 59.0586 173.683 59.0293C173.654 59.0488 173.62 59.0488 173.581 59.0293C173.551 59.0195 173.527 59.0244 173.507 59.0439C173.449 59.0049 173.395 58.9854 173.346 58.9854C173.288 58.9463 173.224 58.9219 173.156 58.9121C173.058 58.8828 173.004 58.8682 172.995 58.8682C172.907 58.8389 172.853 58.8193 172.833 58.8096C172.746 58.751 172.682 58.7119 172.643 58.6924C172.614 58.6729 172.575 58.6631 172.526 58.6631L172.35 58.5605C172.243 58.502 172.184 58.4678 172.174 58.458C172.165 58.4482 172.145 58.4434 172.116 58.4434C172.038 58.375 171.989 58.3359 171.969 58.3262C171.959 58.3066 171.94 58.2969 171.911 58.2969L171.75 58.1797C171.652 58.1406 171.593 58.1064 171.574 58.0771C171.564 58.0479 171.544 58.0381 171.515 58.0479C171.457 57.999 171.417 57.9648 171.398 57.9453C171.378 57.916 171.344 57.9014 171.295 57.9014C171.188 57.8232 171.12 57.7695 171.09 57.7402C171.071 57.7109 171.042 57.6914 171.002 57.6816C170.993 57.6133 170.963 57.5645 170.915 57.5352C170.905 57.4863 170.89 57.4521 170.871 57.4326C170.851 57.4033 170.832 57.3691 170.812 57.3301C170.675 57.252 170.573 57.1396 170.504 56.9932C170.465 56.9541 170.436 56.9102 170.417 56.8613C170.407 56.8125 170.387 56.7637 170.358 56.7148C170.338 56.6953 170.324 56.666 170.314 56.627C170.304 56.5879 170.29 56.5586 170.27 56.5391C170.25 56.5 170.231 56.4561 170.211 56.4072C170.202 56.3584 170.182 56.3193 170.153 56.29C170.163 56.2412 170.158 56.207 170.138 56.1875C170.128 56.1582 170.124 56.1289 170.124 56.0996C170.065 56.0215 170.031 55.9678 170.021 55.9385C170.021 55.8994 170.011 55.8701 169.992 55.8506C169.953 55.7725 169.933 55.7285 169.933 55.7188C169.943 55.709 169.943 55.6943 169.933 55.6748C169.914 55.6455 169.899 55.6113 169.889 55.5723C169.879 55.5234 169.865 55.4795 169.845 55.4404C169.826 55.3721 169.811 55.3281 169.801 55.3086C169.801 55.2793 169.792 55.2549 169.772 55.2354C169.752 55.1279 169.743 55.0352 169.743 54.957C169.743 54.8691 169.723 54.8008 169.684 54.752C169.704 54.6738 169.708 54.6348 169.699 54.6348C169.689 54.625 169.684 54.6104 169.684 54.5908C169.684 54.4932 169.684 54.415 169.684 54.3564C169.684 54.3076 169.679 54.2588 169.669 54.21C169.66 54.1514 169.65 54.0977 169.64 54.0488C169.64 53.9805 169.64 53.9219 169.64 53.873C169.64 53.8145 169.635 53.7559 169.625 53.6973C169.625 53.6289 169.621 53.585 169.611 53.5654C169.611 53.5459 169.616 53.5312 169.625 53.5215C169.625 53.4141 169.625 53.3213 169.625 53.2432C169.625 53.165 169.645 53.1016 169.684 53.0527C169.704 52.9453 169.708 52.877 169.699 52.8477C169.699 52.8086 169.694 52.7744 169.684 52.7451C169.713 52.6084 169.728 52.5254 169.728 52.4961C169.728 52.457 169.733 52.418 169.743 52.3789L169.772 52.1738L169.816 51.9688C169.845 51.9199 169.86 51.876 169.86 51.8369C169.87 51.7979 169.884 51.7637 169.904 51.7344C169.923 51.666 169.933 51.6123 169.933 51.5732C169.933 51.5342 169.943 51.4951 169.962 51.4561C169.992 51.4072 170.006 51.3779 170.006 51.3682C170.006 51.3486 170.016 51.3291 170.036 51.3096C170.094 51.2412 170.119 51.2021 170.109 51.1924C170.109 51.1826 170.114 51.1729 170.124 51.1631C170.143 51.1045 170.158 51.0703 170.167 51.0605C170.177 51.0508 170.187 51.0361 170.197 51.0166C170.236 50.9189 170.26 50.8652 170.27 50.8555C170.338 50.7676 170.373 50.7041 170.373 50.665C170.441 50.5771 170.475 50.5332 170.475 50.5332C170.475 50.5234 170.485 50.5137 170.504 50.5039C170.553 50.4453 170.578 50.4111 170.578 50.4014C170.587 50.3818 170.602 50.3623 170.622 50.3428C170.69 50.2451 170.724 50.1963 170.724 50.1963C170.724 50.1865 170.729 50.1768 170.739 50.167C170.827 50.0889 170.871 50.0449 170.871 50.0352C170.871 50.0254 170.875 50.0156 170.885 50.0059C170.934 49.9277 170.973 49.874 171.002 49.8447C171.042 49.8057 171.071 49.7812 171.09 49.7715C171.11 49.752 171.12 49.7324 171.12 49.7129C171.168 49.7031 171.203 49.6885 171.222 49.6689C171.251 49.6396 171.291 49.6152 171.339 49.5957C171.437 49.498 171.491 49.4395 171.5 49.4199C171.569 49.3613 171.598 49.3271 171.588 49.3174C171.588 49.3076 171.593 49.2979 171.603 49.2881C171.671 49.249 171.715 49.2246 171.735 49.2148C171.764 49.1953 171.789 49.1758 171.808 49.1562C171.867 49.1074 171.901 49.0781 171.911 49.0684C171.93 49.0488 171.95 49.0293 171.969 49.0098C172.106 48.9512 172.199 48.8975 172.248 48.8486L172.438 48.79C172.506 48.7607 172.56 48.7168 172.599 48.6582C172.716 48.6289 172.78 48.6094 172.79 48.5996C172.858 48.5508 172.897 48.5264 172.907 48.5264C172.926 48.5166 172.941 48.502 172.951 48.4824C173.029 48.4727 173.073 48.4678 173.083 48.4678C173.102 48.458 173.122 48.4482 173.141 48.4385C173.229 48.3994 173.288 48.3799 173.317 48.3799C173.356 48.3799 173.385 48.375 173.405 48.3652C173.493 48.3262 173.537 48.3115 173.537 48.3213C173.546 48.3213 173.556 48.3164 173.566 48.3066C173.595 48.2969 173.62 48.2871 173.639 48.2773C173.668 48.2676 173.698 48.2578 173.727 48.248C173.825 48.2188 173.888 48.2041 173.917 48.2041C173.947 48.2041 173.981 48.1943 174.02 48.1748C174.118 48.126 174.181 48.1064 174.21 48.1162C174.24 48.1162 174.264 48.1113 174.284 48.1016C174.381 48.0918 174.44 48.082 174.459 48.0723C174.489 48.0527 174.513 48.0381 174.533 48.0283C174.582 48.0186 174.625 48.0137 174.665 48.0137C174.713 48.0137 174.767 48.0137 174.826 48.0137C174.875 48.0039 174.923 47.9941 174.972 47.9844C175.031 47.9746 175.089 47.9697 175.148 47.9697H175.382C175.412 47.999 175.451 48.0137 175.5 48.0137C175.558 48.0039 175.617 47.999 175.675 47.999C175.792 48.0088 175.861 48.0186 175.88 48.0283C175.9 48.0283 175.919 48.0283 175.939 48.0283C176.046 48.0576 176.11 48.0723 176.129 48.0723C176.159 48.0625 176.193 48.0674 176.232 48.0869C176.261 48.0967 176.286 48.1113 176.305 48.1309C176.325 48.1504 176.349 48.1699 176.378 48.1895C176.398 48.209 176.417 48.2285 176.437 48.248C176.457 48.2676 176.476 48.2871 176.496 48.3066C176.496 48.3848 176.51 48.4385 176.54 48.4678C176.569 48.5654 176.588 48.6338 176.598 48.6729C176.608 48.7119 176.623 48.751 176.642 48.79C176.662 48.9072 176.691 48.9854 176.73 49.0244C176.74 49.1318 176.75 49.1855 176.759 49.1855C176.808 49.2734 176.828 49.332 176.818 49.3613C176.818 49.3809 176.823 49.4004 176.833 49.4199C176.862 49.459 176.881 49.4932 176.891 49.5225C176.901 49.5518 176.925 49.5762 176.964 49.5957C176.984 49.6934 176.999 49.7617 177.008 49.8008C177.028 49.8398 177.047 49.8789 177.067 49.918C177.106 50.0352 177.121 50.0986 177.111 50.1084C177.111 50.1182 177.111 50.1328 177.111 50.1523C177.111 50.1719 177.111 50.2012 177.111 50.2402C177.121 50.2695 177.13 50.3086 177.14 50.3574C177.101 50.4258 177.077 50.4648 177.067 50.4746C177.057 50.4844 177.047 50.499 177.038 50.5186C176.959 50.5283 176.916 50.543 176.906 50.5625C176.906 50.5723 176.896 50.5869 176.876 50.6064C176.837 50.6064 176.798 50.6016 176.759 50.5918C176.73 50.582 176.706 50.5869 176.686 50.6064C176.579 50.5967 176.515 50.5967 176.496 50.6064C176.486 50.6064 176.471 50.6064 176.452 50.6064C176.432 50.6064 176.403 50.6016 176.364 50.5918C176.334 50.582 176.31 50.5771 176.291 50.5771C176.251 50.5576 176.208 50.543 176.159 50.5332C176.11 50.5234 176.071 50.5186 176.042 50.5186C175.973 50.5283 175.919 50.5332 175.88 50.5332C175.851 50.5234 175.812 50.5137 175.763 50.5039C175.685 50.5527 175.597 50.5576 175.5 50.5186C175.48 50.5381 175.451 50.5479 175.412 50.5479C175.373 50.5479 175.343 50.5625 175.324 50.5918C175.246 50.5918 175.187 50.5967 175.148 50.6064C175.001 50.6357 174.904 50.6504 174.855 50.6504C174.718 50.6895 174.625 50.7236 174.577 50.7529C174.538 50.7725 174.494 50.792 174.445 50.8115C174.406 50.8311 174.357 50.8604 174.298 50.8994C174.23 50.9482 174.186 50.9727 174.167 50.9727C174.147 50.9727 174.127 50.9775 174.108 50.9873C174.088 51.0068 174.064 51.0264 174.035 51.0459C174.015 51.0557 173.991 51.0703 173.961 51.0898C173.922 51.1387 173.878 51.1826 173.83 51.2217C173.781 51.2607 173.732 51.3047 173.683 51.3535C173.664 51.373 173.644 51.3926 173.625 51.4121C173.605 51.4316 173.585 51.4512 173.566 51.4707C173.498 51.5195 173.454 51.5586 173.434 51.5879C173.415 51.6074 173.395 51.6318 173.375 51.6611C173.258 51.7393 173.19 51.793 173.17 51.8223C173.112 51.8711 173.058 51.9443 173.009 52.042C172.97 52.1396 172.946 52.1934 172.936 52.2031C172.926 52.2129 172.921 52.2275 172.921 52.2471C172.833 52.335 172.79 52.3984 172.79 52.4375C172.79 52.4766 172.78 52.5059 172.76 52.5254C172.721 52.6133 172.697 52.6621 172.687 52.6719C172.687 52.6816 172.687 52.6963 172.687 52.7158C172.677 52.7354 172.663 52.7646 172.643 52.8037C172.633 52.833 172.628 52.8672 172.628 52.9062C172.58 52.9844 172.555 53.0381 172.555 53.0674C172.565 53.0869 172.56 53.0967 172.541 53.0967C172.521 53.2139 172.506 53.2822 172.497 53.3018C172.497 53.3213 172.492 53.3408 172.482 53.3604C172.472 53.4775 172.467 53.541 172.467 53.5508C172.477 53.5605 172.482 53.5752 172.482 53.5947C172.443 53.6924 172.423 53.7559 172.423 53.7852C172.423 53.8047 172.423 53.8242 172.423 53.8438C172.404 53.9902 172.409 54.0635 172.438 54.0635C172.428 54.21 172.418 54.3271 172.409 54.415C172.409 54.5029 172.418 54.5908 172.438 54.6787C172.458 54.7666 172.472 54.8301 172.482 54.8691C172.492 54.8984 172.497 54.9375 172.497 54.9863C172.506 55.0352 172.511 55.0742 172.511 55.1035C172.511 55.1328 172.521 55.167 172.541 55.2061C172.609 55.3525 172.667 55.4648 172.716 55.543C172.804 55.6406 172.848 55.6992 172.848 55.7188C172.858 55.7285 172.873 55.7432 172.892 55.7627C172.931 55.8799 172.965 55.9531 172.995 55.9824C173.024 56.002 173.058 56.0264 173.097 56.0557C173.146 56.0947 173.18 56.124 173.2 56.1436C173.219 56.1533 173.244 56.1582 173.273 56.1582C173.292 56.1973 173.322 56.2266 173.361 56.2461C173.4 56.2656 173.444 56.2852 173.493 56.3047C173.59 56.3633 173.644 56.3975 173.654 56.4072C173.673 56.417 173.693 56.4219 173.712 56.4219C173.81 56.4512 173.859 56.4805 173.859 56.5098C173.957 56.5488 174.01 56.5684 174.02 56.5684C174.03 56.5586 174.035 56.5635 174.035 56.583C174.083 56.583 174.123 56.5928 174.152 56.6123C174.191 56.6221 174.225 56.6367 174.254 56.6562C174.362 56.666 174.42 56.6758 174.43 56.6855C174.45 56.6953 174.474 56.7051 174.503 56.7148C174.552 56.7246 174.601 56.7295 174.65 56.7295C174.699 56.7295 174.738 56.7393 174.767 56.7588C174.845 56.7588 174.889 56.7588 174.899 56.7588C174.909 56.7588 174.923 56.7686 174.943 56.7881C175.05 56.7979 175.114 56.8027 175.133 56.8027C175.163 56.793 175.187 56.7881 175.207 56.7881C175.314 56.8174 175.373 56.8271 175.382 56.8174C175.49 56.8076 175.563 56.8076 175.602 56.8174C175.641 56.8174 175.68 56.8076 175.719 56.7881C175.817 56.7881 175.871 56.793 175.88 56.8027C175.89 56.8027 175.9 56.8027 175.91 56.8027C175.939 56.8027 175.968 56.7979 175.998 56.7881C176.037 56.7686 176.071 56.7539 176.1 56.7441C176.178 56.7539 176.222 56.7539 176.232 56.7441C176.251 56.7344 176.271 56.7246 176.291 56.7148C176.408 56.7148 176.481 56.7002 176.51 56.6709C176.559 56.6709 176.598 56.666 176.627 56.6562C176.667 56.6465 176.696 56.6367 176.715 56.627C176.833 56.5977 176.891 56.5684 176.891 56.5391C176.93 56.5488 176.964 56.5586 176.994 56.5684C177.023 56.5781 177.057 56.5781 177.096 56.5684C177.116 56.5879 177.14 56.6123 177.169 56.6416C177.199 56.6611 177.228 56.6709 177.257 56.6709L177.331 56.7734Z" fill="white"/>
<rect x="216" width="127" height="50" rx="25" fill="#164E03"/>
<rect x="226" y="6" width="108" height="38" rx="19" fill="#33731E"/>
<path d="M257.503 23.528L255.887 23.8C255.759 23.32 255.343 23.08 254.623 23.08C254.047 23.08 253.615 23.304 253.615 23.704C253.615 23.944 253.823 24.152 254.255 24.296L255.727 24.792C257.055 25.256 257.615 25.912 257.615 26.952C257.615 28.424 256.431 29.208 254.767 29.208C253.039 29.208 251.967 28.392 251.775 27.096L253.391 26.856C253.535 27.416 254.015 27.704 254.815 27.704C255.471 27.704 255.967 27.448 255.967 27.016C255.967 26.728 255.695 26.488 255.167 26.312L253.695 25.848C252.479 25.448 251.967 24.856 251.967 23.832C251.967 22.344 253.103 21.592 254.751 21.592C256.303 21.592 257.327 22.328 257.503 23.528ZM266.031 26.04H260.319C260.575 26.984 261.407 27.624 262.431 27.624C263.119 27.624 263.679 27.368 264.111 26.856L265.791 27.352C265.135 28.488 263.887 29.208 262.431 29.208C261.327 29.208 260.399 28.84 259.647 28.12C258.895 27.4 258.527 26.488 258.527 25.4C258.527 24.328 258.895 23.416 259.615 22.696C260.335 21.96 261.247 21.592 262.319 21.592C263.391 21.592 264.271 21.96 264.991 22.696C265.711 23.416 266.079 24.328 266.079 25.4C266.079 25.624 266.063 25.832 266.031 26.04ZM260.335 24.696H264.303C264.031 23.8 263.247 23.176 262.287 23.176C261.375 23.176 260.591 23.8 260.335 24.696ZM268.965 29H267.237V17.4H268.965V29ZM272.23 29H270.502V17.4H272.23V29ZM279.945 19.928V21.8H281.673V23.304H279.945V29H278.233V23.304H277.129V21.8H278.233V19.688C278.233 19.032 278.473 18.488 278.937 18.056C279.401 17.624 279.993 17.4 280.697 17.4H281.673V19.064H280.841C280.329 19.064 279.945 19.432 279.945 19.928ZM286.008 21.592C287.096 21.592 288.008 21.96 288.728 22.68C289.448 23.4 289.816 24.312 289.816 25.4C289.816 26.488 289.448 27.4 288.728 28.12C288.008 28.84 287.096 29.208 286.008 29.208C284.904 29.208 283.992 28.84 283.272 28.12C282.552 27.4 282.184 26.488 282.184 25.4C282.184 24.312 282.552 23.4 283.272 22.68C283.992 21.96 284.904 21.592 286.008 21.592ZM286.008 27.48C286.568 27.48 287.048 27.288 287.432 26.888C287.816 26.488 288.008 25.992 288.008 25.4C288.008 24.808 287.816 24.328 287.432 23.928C287.048 23.528 286.568 23.32 286.008 23.32C285.432 23.32 284.952 23.528 284.552 23.928C284.168 24.328 283.976 24.808 283.976 25.4C283.976 25.992 284.168 26.488 284.552 26.888C284.952 27.288 285.432 27.48 286.008 27.48ZM294.633 21.592C295.721 21.592 296.633 21.96 297.353 22.68C298.073 23.4 298.441 24.312 298.441 25.4C298.441 26.488 298.073 27.4 297.353 28.12C296.633 28.84 295.721 29.208 294.633 29.208C293.529 29.208 292.617 28.84 291.897 28.12C291.177 27.4 290.809 26.488 290.809 25.4C290.809 24.312 291.177 23.4 291.897 22.68C292.617 21.96 293.529 21.592 294.633 21.592ZM294.633 27.48C295.193 27.48 295.673 27.288 296.057 26.888C296.441 26.488 296.633 25.992 296.633 25.4C296.633 24.808 296.441 24.328 296.057 23.928C295.673 23.528 295.193 23.32 294.633 23.32C294.057 23.32 293.577 23.528 293.177 23.928C292.793 24.328 292.601 24.808 292.601 25.4C292.601 25.992 292.793 26.488 293.177 26.888C293.577 27.288 294.057 27.48 294.633 27.48ZM299.434 25.4C299.434 24.328 299.77 23.416 300.442 22.696C301.114 21.96 301.946 21.592 302.954 21.592C303.786 21.592 304.506 21.848 305.13 22.376V17.4H306.842V29H305.13V28.424C304.506 28.952 303.786 29.208 302.954 29.208C301.946 29.208 301.114 28.84 300.442 28.12C299.77 27.4 299.434 26.488 299.434 25.4ZM304.538 23.928C304.17 23.528 303.706 23.32 303.161 23.32C302.618 23.32 302.154 23.528 301.786 23.928C301.418 24.328 301.226 24.808 301.226 25.4C301.226 25.992 301.418 26.488 301.786 26.888C302.154 27.288 302.618 27.48 303.161 27.48C303.706 27.48 304.17 27.288 304.538 26.888C304.906 26.488 305.098 25.992 305.098 25.4C305.098 24.808 304.906 24.328 304.538 23.928Z" fill="white"/>
<path d="M248 39C248 38.4477 247.552 38 247 38C246.448 38 246 38.4477 246 39H248ZM246.293 56.7071C246.683 57.0976 247.317 57.0976 247.707 56.7071L254.071 50.3431C254.462 49.9526 254.462 49.3195 254.071 48.9289C253.681 48.5384 253.047 48.5384 252.657 48.9289L247 54.5858L241.343 48.9289C240.953 48.5384 240.319 48.5384 239.929 48.9289C239.538 49.3195 239.538 49.9526 239.929 50.3431L246.293 56.7071ZM246 39V56H248V39H246Z" fill="white"/>
<path d="M297 56C297 56.5523 297.448 57 298 57C298.552 57 299 56.5523 299 56H297ZM298.707 38.2929C298.317 37.9024 297.683 37.9024 297.293 38.2929L290.929 44.6569C290.538 45.0474 290.538 45.6805 290.929 46.0711C291.319 46.4616 291.953 46.4616 292.343 46.0711L298 40.4142L303.657 46.0711C304.047 46.4616 304.681 46.4616 305.071 46.0711C305.462 45.6805 305.462 45.0474 305.071 44.6569L298.707 38.2929ZM299 56V39H297V56H299Z" fill="white"/>
<path d="M258.055 49.2031C258.055 49.1302 258.073 49.0495 258.109 48.9609C258.146 48.8672 258.193 48.7812 258.25 48.7031C258.307 48.6198 258.372 48.5521 258.445 48.5C258.523 48.4427 258.599 48.4141 258.672 48.4141C258.766 48.4141 258.849 48.4349 258.922 48.4766C258.995 48.5182 259.062 48.5781 259.125 48.6562C259.193 48.7344 259.258 48.8307 259.32 48.9453C259.388 49.0599 259.464 49.1901 259.547 49.3359C259.646 49.4141 259.763 49.4896 259.898 49.5625C260.039 49.6302 260.185 49.6901 260.336 49.7422C260.487 49.7891 260.641 49.8281 260.797 49.8594C260.958 49.8906 261.107 49.9062 261.242 49.9062C261.31 49.9062 261.354 49.8828 261.375 49.8359C261.401 49.7891 261.414 49.7214 261.414 49.6328C261.414 49.5234 261.417 49.4271 261.422 49.3438C261.427 49.2604 261.43 49.1536 261.43 49.0234C261.43 48.888 261.427 48.7109 261.422 48.4922C261.417 48.2734 261.404 47.9792 261.383 47.6094C260.82 47.4896 260.341 47.3594 259.945 47.2188C259.549 47.0781 259.224 46.9141 258.969 46.7266C258.714 46.5391 258.526 46.3203 258.406 46.0703C258.292 45.8151 258.234 45.5156 258.234 45.1719C258.234 44.9115 258.271 44.6536 258.344 44.3984C258.422 44.138 258.529 43.8906 258.664 43.6562C258.799 43.4219 258.958 43.2083 259.141 43.0156C259.323 42.8177 259.521 42.651 259.734 42.5156C259.901 42.4115 260.094 42.3203 260.312 42.2422C260.536 42.1589 260.818 42.0651 261.156 41.9609C261.156 41.8255 261.154 41.7109 261.148 41.6172C261.148 41.5234 261.148 41.4323 261.148 41.3438C261.148 41.1719 261.156 41.0104 261.172 40.8594C261.188 40.7083 261.221 40.5755 261.273 40.4609C261.331 40.3411 261.411 40.2474 261.516 40.1797C261.625 40.112 261.771 40.0781 261.953 40.0781C262 40.0781 262.06 40.0938 262.133 40.125C262.206 40.1562 262.276 40.2005 262.344 40.2578C262.411 40.3151 262.469 40.388 262.516 40.4766C262.568 40.5651 262.594 40.6667 262.594 40.7812V41.9062C262.724 41.9219 262.862 41.9479 263.008 41.9844C263.159 42.0156 263.302 42.0521 263.438 42.0938C263.578 42.1354 263.703 42.1797 263.812 42.2266C263.927 42.2682 264.013 42.3047 264.07 42.3359C264.247 42.4349 264.404 42.5625 264.539 42.7188C264.674 42.875 264.789 43.0495 264.883 43.2422C264.977 43.4297 265.047 43.6302 265.094 43.8438C265.146 44.0521 265.172 44.2604 265.172 44.4688C265.172 44.5 265.161 44.5521 265.141 44.625C265.125 44.6927 265.094 44.763 265.047 44.8359C265.005 44.9089 264.948 44.974 264.875 45.0312C264.807 45.0833 264.721 45.1094 264.617 45.1094C264.435 45.1094 264.297 45.0651 264.203 44.9766C264.115 44.888 264.044 44.776 263.992 44.6406C263.94 44.5052 263.893 44.3594 263.852 44.2031C263.815 44.0417 263.755 43.8932 263.672 43.7578C263.589 43.6172 263.471 43.4974 263.32 43.3984C263.169 43.2995 262.956 43.2448 262.68 43.2344C262.68 43.5781 262.68 43.9193 262.68 44.2578C262.68 44.5911 262.68 44.9036 262.68 45.1953C262.685 45.487 262.69 45.7526 262.695 45.9922C262.706 46.2266 262.716 46.4167 262.727 46.5625C263.122 46.6302 263.51 46.7318 263.891 46.8672C264.276 47.0026 264.62 47.1823 264.922 47.4062C265.229 47.625 265.477 47.8906 265.664 48.2031C265.852 48.5104 265.945 48.875 265.945 49.2969C265.945 49.599 265.891 49.8594 265.781 50.0781C265.677 50.2917 265.536 50.4714 265.359 50.6172C265.188 50.763 264.99 50.8802 264.766 50.9688C264.547 51.0521 264.323 51.1172 264.094 51.1641C263.865 51.2057 263.641 51.237 263.422 51.2578C263.208 51.2734 263.018 51.2865 262.852 51.2969V52.6875C262.852 52.7708 262.82 52.8438 262.758 52.9062C262.695 52.974 262.622 53.0286 262.539 53.0703C262.461 53.112 262.38 53.1432 262.297 53.1641C262.214 53.1901 262.151 53.2031 262.109 53.2031C262.094 53.2031 262.044 53.1953 261.961 53.1797C261.878 53.1693 261.789 53.1432 261.695 53.1016C261.602 53.0651 261.516 53.013 261.438 52.9453C261.365 52.8828 261.328 52.7969 261.328 52.6875V51.2266C261.255 51.2057 261.122 51.1823 260.93 51.1562C260.742 51.125 260.526 51.0833 260.281 51.0312C260.036 50.974 259.784 50.901 259.523 50.8125C259.263 50.7188 259.023 50.6016 258.805 50.4609C258.586 50.3151 258.406 50.1406 258.266 49.9375C258.125 49.7344 258.055 49.4896 258.055 49.2031ZM259.586 45.3359C259.586 45.4557 259.646 45.5703 259.766 45.6797C259.885 45.7839 260.034 45.8776 260.211 45.9609C260.393 46.0443 260.586 46.1146 260.789 46.1719C260.997 46.224 261.185 46.2604 261.352 46.2812C261.352 46.2396 261.354 46.1849 261.359 46.1172C261.365 46.0495 261.367 45.974 261.367 45.8906C261.367 45.7708 261.367 45.6328 261.367 45.4766C261.372 45.3151 261.37 45.1302 261.359 44.9219C261.354 44.7135 261.341 44.4792 261.32 44.2188C261.305 43.9531 261.279 43.6562 261.242 43.3281C261.029 43.3542 260.823 43.4271 260.625 43.5469C260.427 43.6615 260.25 43.8099 260.094 43.9922C259.943 44.1693 259.82 44.375 259.727 44.6094C259.633 44.8385 259.586 45.0807 259.586 45.3359ZM262.852 49.9844C262.966 49.9844 263.117 49.974 263.305 49.9531C263.492 49.9323 263.677 49.8958 263.859 49.8438C264.042 49.7917 264.198 49.7214 264.328 49.6328C264.464 49.5443 264.531 49.4323 264.531 49.2969C264.531 49.0625 264.479 48.8594 264.375 48.6875C264.276 48.5104 264.146 48.362 263.984 48.2422C263.823 48.1224 263.641 48.0234 263.438 47.9453C263.24 47.8672 263.044 47.8073 262.852 47.7656V49.9844Z" fill="white"/>
<path d="M316.331 50.7734C316.331 50.8027 316.321 50.832 316.301 50.8613C316.292 50.8809 316.282 50.9053 316.272 50.9346C316.262 51.0322 316.248 51.0908 316.228 51.1104C316.218 51.2178 316.204 51.2764 316.184 51.2861C316.174 51.2959 316.179 51.3105 316.199 51.3301C316.16 51.3496 316.135 51.3887 316.125 51.4473C316.116 51.4961 316.101 51.5449 316.082 51.5938C316.062 51.6426 316.042 51.6914 316.023 51.7402C316.013 51.7793 315.999 51.8184 315.979 51.8574C315.969 51.9258 315.964 51.9697 315.964 51.9893C315.964 51.999 315.955 52.0137 315.935 52.0332L315.847 52.209C315.847 52.2578 315.837 52.2969 315.818 52.3262C315.798 52.3555 315.793 52.3896 315.803 52.4287C315.735 52.5557 315.696 52.668 315.686 52.7656C315.598 52.8438 315.549 52.9023 315.54 52.9414C315.461 53 315.417 53.0342 315.408 53.0439C315.408 53.0537 315.403 53.0635 315.393 53.0732C315.354 53.0732 315.325 53.0781 315.305 53.0879C315.286 53.1074 315.256 53.1172 315.217 53.1172C315.12 53.1367 315.051 53.1562 315.012 53.1758C314.954 53.1855 314.915 53.1953 314.895 53.2051C314.875 53.2148 314.856 53.2246 314.836 53.2344C314.807 53.2344 314.778 53.2295 314.749 53.2197C314.719 53.2197 314.68 53.2197 314.631 53.2197C314.592 53.2197 314.553 53.2246 314.514 53.2344C314.475 53.2441 314.436 53.249 314.397 53.249C314.319 53.2393 314.27 53.2344 314.25 53.2344C314.231 53.2441 314.211 53.249 314.192 53.249C314.084 53.2295 314.016 53.2197 313.987 53.2197C313.958 53.2295 313.928 53.2344 313.899 53.2344C313.792 53.2148 313.733 53.2051 313.723 53.2051C313.723 53.2148 313.718 53.2197 313.708 53.2197C313.591 53.21 313.494 53.1953 313.416 53.1758C313.347 53.1855 313.298 53.1855 313.269 53.1758C313.24 53.166 313.21 53.1758 313.181 53.2051C313.093 53.1953 313.04 53.1807 313.02 53.1611C313.01 53.1514 313 53.1562 312.991 53.1758C312.874 53.1172 312.795 53.083 312.756 53.0732C312.727 53.0732 312.703 53.0586 312.683 53.0293C312.654 53.0488 312.62 53.0488 312.581 53.0293C312.551 53.0195 312.527 53.0244 312.507 53.0439C312.449 53.0049 312.395 52.9854 312.346 52.9854C312.288 52.9463 312.224 52.9219 312.156 52.9121C312.058 52.8828 312.004 52.8682 311.995 52.8682C311.907 52.8389 311.853 52.8193 311.833 52.8096C311.746 52.751 311.682 52.7119 311.643 52.6924C311.614 52.6729 311.575 52.6631 311.526 52.6631L311.35 52.5605C311.243 52.502 311.184 52.4678 311.174 52.458C311.165 52.4482 311.145 52.4434 311.116 52.4434C311.038 52.375 310.989 52.3359 310.969 52.3262C310.959 52.3066 310.94 52.2969 310.911 52.2969L310.75 52.1797C310.652 52.1406 310.593 52.1064 310.574 52.0771C310.564 52.0479 310.544 52.0381 310.515 52.0479C310.457 51.999 310.417 51.9648 310.398 51.9453C310.378 51.916 310.344 51.9014 310.295 51.9014C310.188 51.8232 310.12 51.7695 310.09 51.7402C310.071 51.7109 310.042 51.6914 310.002 51.6816C309.993 51.6133 309.963 51.5645 309.915 51.5352C309.905 51.4863 309.89 51.4521 309.871 51.4326C309.851 51.4033 309.832 51.3691 309.812 51.3301C309.675 51.252 309.573 51.1396 309.504 50.9932C309.465 50.9541 309.436 50.9102 309.417 50.8613C309.407 50.8125 309.387 50.7637 309.358 50.7148C309.338 50.6953 309.324 50.666 309.314 50.627C309.304 50.5879 309.29 50.5586 309.27 50.5391C309.25 50.5 309.231 50.4561 309.211 50.4072C309.202 50.3584 309.182 50.3193 309.153 50.29C309.163 50.2412 309.158 50.207 309.138 50.1875C309.128 50.1582 309.124 50.1289 309.124 50.0996C309.065 50.0215 309.031 49.9678 309.021 49.9385C309.021 49.8994 309.011 49.8701 308.992 49.8506C308.953 49.7725 308.933 49.7285 308.933 49.7188C308.943 49.709 308.943 49.6943 308.933 49.6748C308.914 49.6455 308.899 49.6113 308.889 49.5723C308.879 49.5234 308.865 49.4795 308.845 49.4404C308.826 49.3721 308.811 49.3281 308.801 49.3086C308.801 49.2793 308.792 49.2549 308.772 49.2354C308.752 49.1279 308.743 49.0352 308.743 48.957C308.743 48.8691 308.723 48.8008 308.684 48.752C308.704 48.6738 308.708 48.6348 308.699 48.6348C308.689 48.625 308.684 48.6104 308.684 48.5908C308.684 48.4932 308.684 48.415 308.684 48.3564C308.684 48.3076 308.679 48.2588 308.669 48.21C308.66 48.1514 308.65 48.0977 308.64 48.0488C308.64 47.9805 308.64 47.9219 308.64 47.873C308.64 47.8145 308.635 47.7559 308.625 47.6973C308.625 47.6289 308.621 47.585 308.611 47.5654C308.611 47.5459 308.616 47.5312 308.625 47.5215C308.625 47.4141 308.625 47.3213 308.625 47.2432C308.625 47.165 308.645 47.1016 308.684 47.0527C308.704 46.9453 308.708 46.877 308.699 46.8477C308.699 46.8086 308.694 46.7744 308.684 46.7451C308.713 46.6084 308.728 46.5254 308.728 46.4961C308.728 46.457 308.733 46.418 308.743 46.3789L308.772 46.1738L308.816 45.9688C308.845 45.9199 308.86 45.876 308.86 45.8369C308.87 45.7979 308.884 45.7637 308.904 45.7344C308.923 45.666 308.933 45.6123 308.933 45.5732C308.933 45.5342 308.943 45.4951 308.962 45.4561C308.992 45.4072 309.006 45.3779 309.006 45.3682C309.006 45.3486 309.016 45.3291 309.036 45.3096C309.094 45.2412 309.119 45.2021 309.109 45.1924C309.109 45.1826 309.114 45.1729 309.124 45.1631C309.143 45.1045 309.158 45.0703 309.167 45.0605C309.177 45.0508 309.187 45.0361 309.197 45.0166C309.236 44.9189 309.26 44.8652 309.27 44.8555C309.338 44.7676 309.373 44.7041 309.373 44.665C309.441 44.5771 309.475 44.5332 309.475 44.5332C309.475 44.5234 309.485 44.5137 309.504 44.5039C309.553 44.4453 309.578 44.4111 309.578 44.4014C309.587 44.3818 309.602 44.3623 309.622 44.3428C309.69 44.2451 309.724 44.1963 309.724 44.1963C309.724 44.1865 309.729 44.1768 309.739 44.167C309.827 44.0889 309.871 44.0449 309.871 44.0352C309.871 44.0254 309.875 44.0156 309.885 44.0059C309.934 43.9277 309.973 43.874 310.002 43.8447C310.042 43.8057 310.071 43.7812 310.09 43.7715C310.11 43.752 310.12 43.7324 310.12 43.7129C310.168 43.7031 310.203 43.6885 310.222 43.6689C310.251 43.6396 310.291 43.6152 310.339 43.5957C310.437 43.498 310.491 43.4395 310.5 43.4199C310.569 43.3613 310.598 43.3271 310.588 43.3174C310.588 43.3076 310.593 43.2979 310.603 43.2881C310.671 43.249 310.715 43.2246 310.735 43.2148C310.764 43.1953 310.789 43.1758 310.808 43.1562C310.867 43.1074 310.901 43.0781 310.911 43.0684C310.93 43.0488 310.95 43.0293 310.969 43.0098C311.106 42.9512 311.199 42.8975 311.248 42.8486L311.438 42.79C311.506 42.7607 311.56 42.7168 311.599 42.6582C311.716 42.6289 311.78 42.6094 311.79 42.5996C311.858 42.5508 311.897 42.5264 311.907 42.5264C311.926 42.5166 311.941 42.502 311.951 42.4824C312.029 42.4727 312.073 42.4678 312.083 42.4678C312.102 42.458 312.122 42.4482 312.141 42.4385C312.229 42.3994 312.288 42.3799 312.317 42.3799C312.356 42.3799 312.385 42.375 312.405 42.3652C312.493 42.3262 312.537 42.3115 312.537 42.3213C312.546 42.3213 312.556 42.3164 312.566 42.3066C312.595 42.2969 312.62 42.2871 312.639 42.2773C312.668 42.2676 312.698 42.2578 312.727 42.248C312.825 42.2188 312.888 42.2041 312.917 42.2041C312.947 42.2041 312.981 42.1943 313.02 42.1748C313.118 42.126 313.181 42.1064 313.21 42.1162C313.24 42.1162 313.264 42.1113 313.284 42.1016C313.381 42.0918 313.44 42.082 313.459 42.0723C313.489 42.0527 313.513 42.0381 313.533 42.0283C313.582 42.0186 313.625 42.0137 313.665 42.0137C313.713 42.0137 313.767 42.0137 313.826 42.0137C313.875 42.0039 313.923 41.9941 313.972 41.9844C314.031 41.9746 314.089 41.9697 314.148 41.9697H314.382C314.412 41.999 314.451 42.0137 314.5 42.0137C314.558 42.0039 314.617 41.999 314.675 41.999C314.792 42.0088 314.861 42.0186 314.88 42.0283C314.9 42.0283 314.919 42.0283 314.939 42.0283C315.046 42.0576 315.11 42.0723 315.129 42.0723C315.159 42.0625 315.193 42.0674 315.232 42.0869C315.261 42.0967 315.286 42.1113 315.305 42.1309C315.325 42.1504 315.349 42.1699 315.378 42.1895C315.398 42.209 315.417 42.2285 315.437 42.248C315.457 42.2676 315.476 42.2871 315.496 42.3066C315.496 42.3848 315.51 42.4385 315.54 42.4678C315.569 42.5654 315.588 42.6338 315.598 42.6729C315.608 42.7119 315.623 42.751 315.642 42.79C315.662 42.9072 315.691 42.9854 315.73 43.0244C315.74 43.1318 315.75 43.1855 315.759 43.1855C315.808 43.2734 315.828 43.332 315.818 43.3613C315.818 43.3809 315.823 43.4004 315.833 43.4199C315.862 43.459 315.881 43.4932 315.891 43.5225C315.901 43.5518 315.925 43.5762 315.964 43.5957C315.984 43.6934 315.999 43.7617 316.008 43.8008C316.028 43.8398 316.047 43.8789 316.067 43.918C316.106 44.0352 316.121 44.0986 316.111 44.1084C316.111 44.1182 316.111 44.1328 316.111 44.1523C316.111 44.1719 316.111 44.2012 316.111 44.2402C316.121 44.2695 316.13 44.3086 316.14 44.3574C316.101 44.4258 316.077 44.4648 316.067 44.4746C316.057 44.4844 316.047 44.499 316.038 44.5186C315.959 44.5283 315.916 44.543 315.906 44.5625C315.906 44.5723 315.896 44.5869 315.876 44.6064C315.837 44.6064 315.798 44.6016 315.759 44.5918C315.73 44.582 315.706 44.5869 315.686 44.6064C315.579 44.5967 315.515 44.5967 315.496 44.6064C315.486 44.6064 315.471 44.6064 315.452 44.6064C315.432 44.6064 315.403 44.6016 315.364 44.5918C315.334 44.582 315.31 44.5771 315.291 44.5771C315.251 44.5576 315.208 44.543 315.159 44.5332C315.11 44.5234 315.071 44.5186 315.042 44.5186C314.973 44.5283 314.919 44.5332 314.88 44.5332C314.851 44.5234 314.812 44.5137 314.763 44.5039C314.685 44.5527 314.597 44.5576 314.5 44.5186C314.48 44.5381 314.451 44.5479 314.412 44.5479C314.373 44.5479 314.343 44.5625 314.324 44.5918C314.246 44.5918 314.187 44.5967 314.148 44.6064C314.001 44.6357 313.904 44.6504 313.855 44.6504C313.718 44.6895 313.625 44.7236 313.577 44.7529C313.538 44.7725 313.494 44.792 313.445 44.8115C313.406 44.8311 313.357 44.8604 313.298 44.8994C313.23 44.9482 313.186 44.9727 313.167 44.9727C313.147 44.9727 313.127 44.9775 313.108 44.9873C313.088 45.0068 313.064 45.0264 313.035 45.0459C313.015 45.0557 312.991 45.0703 312.961 45.0898C312.922 45.1387 312.878 45.1826 312.83 45.2217C312.781 45.2607 312.732 45.3047 312.683 45.3535C312.664 45.373 312.644 45.3926 312.625 45.4121C312.605 45.4316 312.585 45.4512 312.566 45.4707C312.498 45.5195 312.454 45.5586 312.434 45.5879C312.415 45.6074 312.395 45.6318 312.375 45.6611C312.258 45.7393 312.19 45.793 312.17 45.8223C312.112 45.8711 312.058 45.9443 312.009 46.042C311.97 46.1396 311.946 46.1934 311.936 46.2031C311.926 46.2129 311.921 46.2275 311.921 46.2471C311.833 46.335 311.79 46.3984 311.79 46.4375C311.79 46.4766 311.78 46.5059 311.76 46.5254C311.721 46.6133 311.697 46.6621 311.687 46.6719C311.687 46.6816 311.687 46.6963 311.687 46.7158C311.677 46.7354 311.663 46.7646 311.643 46.8037C311.633 46.833 311.628 46.8672 311.628 46.9062C311.58 46.9844 311.555 47.0381 311.555 47.0674C311.565 47.0869 311.56 47.0967 311.541 47.0967C311.521 47.2139 311.506 47.2822 311.497 47.3018C311.497 47.3213 311.492 47.3408 311.482 47.3604C311.472 47.4775 311.467 47.541 311.467 47.5508C311.477 47.5605 311.482 47.5752 311.482 47.5947C311.443 47.6924 311.423 47.7559 311.423 47.7852C311.423 47.8047 311.423 47.8242 311.423 47.8438C311.404 47.9902 311.409 48.0635 311.438 48.0635C311.428 48.21 311.418 48.3271 311.409 48.415C311.409 48.5029 311.418 48.5908 311.438 48.6787C311.458 48.7666 311.472 48.8301 311.482 48.8691C311.492 48.8984 311.497 48.9375 311.497 48.9863C311.506 49.0352 311.511 49.0742 311.511 49.1035C311.511 49.1328 311.521 49.167 311.541 49.2061C311.609 49.3525 311.667 49.4648 311.716 49.543C311.804 49.6406 311.848 49.6992 311.848 49.7188C311.858 49.7285 311.873 49.7432 311.892 49.7627C311.931 49.8799 311.965 49.9531 311.995 49.9824C312.024 50.002 312.058 50.0264 312.097 50.0557C312.146 50.0947 312.18 50.124 312.2 50.1436C312.219 50.1533 312.244 50.1582 312.273 50.1582C312.292 50.1973 312.322 50.2266 312.361 50.2461C312.4 50.2656 312.444 50.2852 312.493 50.3047C312.59 50.3633 312.644 50.3975 312.654 50.4072C312.673 50.417 312.693 50.4219 312.712 50.4219C312.81 50.4512 312.859 50.4805 312.859 50.5098C312.957 50.5488 313.01 50.5684 313.02 50.5684C313.03 50.5586 313.035 50.5635 313.035 50.583C313.083 50.583 313.123 50.5928 313.152 50.6123C313.191 50.6221 313.225 50.6367 313.254 50.6562C313.362 50.666 313.42 50.6758 313.43 50.6855C313.45 50.6953 313.474 50.7051 313.503 50.7148C313.552 50.7246 313.601 50.7295 313.65 50.7295C313.699 50.7295 313.738 50.7393 313.767 50.7588C313.845 50.7588 313.889 50.7588 313.899 50.7588C313.909 50.7588 313.923 50.7686 313.943 50.7881C314.05 50.7979 314.114 50.8027 314.133 50.8027C314.163 50.793 314.187 50.7881 314.207 50.7881C314.314 50.8174 314.373 50.8271 314.382 50.8174C314.49 50.8076 314.563 50.8076 314.602 50.8174C314.641 50.8174 314.68 50.8076 314.719 50.7881C314.817 50.7881 314.871 50.793 314.88 50.8027C314.89 50.8027 314.9 50.8027 314.91 50.8027C314.939 50.8027 314.968 50.7979 314.998 50.7881C315.037 50.7686 315.071 50.7539 315.1 50.7441C315.178 50.7539 315.222 50.7539 315.232 50.7441C315.251 50.7344 315.271 50.7246 315.291 50.7148C315.408 50.7148 315.481 50.7002 315.51 50.6709C315.559 50.6709 315.598 50.666 315.627 50.6562C315.667 50.6465 315.696 50.6367 315.715 50.627C315.833 50.5977 315.891 50.5684 315.891 50.5391C315.93 50.5488 315.964 50.5586 315.994 50.5684C316.023 50.5781 316.057 50.5781 316.096 50.5684C316.116 50.5879 316.14 50.6123 316.169 50.6416C316.199 50.6611 316.228 50.6709 316.257 50.6709L316.331 50.7734Z" fill="white"/>
<defs>
<linearGradient id="paint0_linear_360_125" x1="237.019" y1="77" x2="-18.1451" y2="116.047" gradientUnits="userSpaceOnUse">
<stop stop-color="#D50000"/>
<stop offset="1" stop-opacity="0"/>
</linearGradient>
</defs>
</svg>
