<svg width="73" height="73" viewBox="0 0 73 73" fill="none" xmlns="http://www.w3.org/2000/svg">
<path d="M55.5272 0H16.9981C7.61032 0 0 7.61032 0 16.9981V55.5272C0 64.915 7.61032 72.5253 16.9981 72.5253H55.5272C64.915 72.5253 72.5253 64.915 72.5253 55.5272V16.9981C72.5253 7.61032 64.915 0 55.5272 0Z" fill="url(#paint0_radial_439_106)"/>
<path d="M55.5272 0H16.9981C7.61032 0 0 7.61032 0 16.9981V55.5272C0 64.915 7.61032 72.5253 16.9981 72.5253H55.5272C64.915 72.5253 72.5253 64.915 72.5253 55.5272V16.9981C72.5253 7.61032 64.915 0 55.5272 0Z" fill="url(#paint1_radial_439_106)"/>
<path d="M36.2652 7.9325C28.5713 7.9325 27.6055 7.96621 24.5838 8.10361C21.5678 8.24186 19.509 8.71922 17.7078 9.41983C15.8442 10.1434 14.2637 11.1114 12.6891 12.6866C11.1131 14.2615 10.145 15.842 9.41923 17.7047C8.71664 19.5065 8.23871 21.5661 8.103 24.5807C7.96787 27.6027 7.93246 28.5688 7.93246 36.263C7.93246 43.9572 7.96645 44.9198 8.10357 47.9415C8.24239 50.9576 8.71975 53.0163 9.41979 54.8175C10.1439 56.6811 11.112 58.2617 12.6871 59.8362C14.2614 61.4123 15.842 62.3826 17.7041 63.1061C19.5068 63.8067 21.5658 64.2841 24.5813 64.4223C27.6032 64.5597 28.5682 64.5935 36.2618 64.5935C43.9566 64.5935 44.9192 64.5597 47.9409 64.4223C50.957 64.2841 53.018 63.8067 54.8206 63.1061C56.6833 62.3826 58.2616 61.4123 59.8356 59.8362C61.4116 58.2617 62.3794 56.6811 63.1055 54.8184C63.8019 53.0163 64.2801 50.957 64.4217 47.9421C64.5574 44.9204 64.5928 43.9572 64.5928 36.263C64.5928 28.5688 64.5574 27.6033 64.4217 24.5813C64.2801 21.5653 63.8019 19.5068 63.1055 17.7056C62.3794 15.842 61.4116 14.2615 59.8356 12.6866C58.2599 11.1109 56.6839 10.1428 54.8189 9.42011C53.0129 8.71922 50.953 8.24158 47.937 8.10361C44.915 7.96621 43.9529 7.9325 36.2564 7.9325H36.2652ZM33.7237 13.0379C34.4781 13.0367 35.3198 13.0379 36.2652 13.0379C43.8296 13.0379 44.726 13.0651 47.7131 13.2008C50.4753 13.3271 51.9746 13.7886 52.9732 14.1765C54.2954 14.6898 55.2379 15.3037 56.2289 16.2956C57.2205 17.2871 57.8341 18.2314 58.3489 19.5535C58.7367 20.5508 59.1988 22.05 59.3246 24.8122C59.4603 27.7988 59.4897 28.6957 59.4897 36.2565C59.4897 43.8172 59.4603 44.7144 59.3246 47.7007C59.1982 50.4629 58.7367 51.9621 58.3489 52.9597C57.8355 54.2818 57.2205 55.2232 56.2289 56.2142C55.2374 57.2058 54.296 57.8194 52.9732 58.333C51.9757 58.7226 50.4753 59.183 47.7131 59.3093C44.7266 59.445 43.8296 59.4745 36.2652 59.4745C28.7005 59.4745 27.8038 59.445 24.8175 59.3093C22.0553 59.1818 20.5561 58.7203 19.5566 58.3325C18.2347 57.8189 17.2902 57.2052 16.2986 56.2137C15.3071 55.2221 14.6935 54.2801 14.1787 52.9574C13.7909 51.9599 13.3288 50.4606 13.203 47.6985C13.0673 44.7119 13.0401 43.815 13.0401 36.2494C13.0401 28.6841 13.0673 27.7917 13.203 24.8051C13.3294 22.0429 13.7909 20.5437 14.1787 19.545C14.6923 18.2229 15.3071 17.2786 16.2989 16.2871C17.2905 15.2955 18.2347 14.6816 19.5569 14.1671C20.5555 13.7776 22.0553 13.3172 24.8175 13.1903C27.431 13.0722 28.4438 13.0367 33.7237 13.0308V13.0379ZM51.3879 17.7418C49.511 17.7418 47.9882 19.2632 47.9882 21.1403C47.9882 23.0172 49.511 24.5399 51.3879 24.5399C53.2647 24.5399 54.7875 23.0172 54.7875 21.1403C54.7875 19.2634 53.2647 17.7407 51.3879 17.7407V17.7418ZM36.2652 21.714C28.2308 21.714 21.7165 28.2282 21.7165 36.263C21.7165 44.2977 28.2308 50.8088 36.2652 50.8088C44.2999 50.8088 50.8119 44.2977 50.8119 36.263C50.8119 28.2285 44.2994 21.714 36.2646 21.714H36.2652ZM36.2652 26.8194C41.4805 26.8194 45.7088 31.0471 45.7088 36.263C45.7088 41.4783 41.4805 45.7066 36.2652 45.7066C31.0496 45.7066 26.8219 41.4783 26.8219 36.263C26.8219 31.0471 31.0496 26.8194 36.2652 26.8194Z" fill="white"/>
<defs>
<radialGradient id="paint0_radial_439_106" cx="0" cy="0" r="1" gradientUnits="userSpaceOnUse" gradientTransform="translate(19.2645 78.1112) rotate(-90) scale(71.878 66.8522)">
<stop stop-color="#FFDD55"/>
<stop offset="0.1" stop-color="#FFDD55"/>
<stop offset="0.5" stop-color="#FF543E"/>
<stop offset="1" stop-color="#C837AB"/>
</radialGradient>
<radialGradient id="paint1_radial_439_106" cx="0" cy="0" r="1" gradientUnits="userSpaceOnUse" gradientTransform="translate(-12.1483 5.22437) rotate(78.681) scale(32.1298 132.44)">
<stop stop-color="#3771C8"/>
<stop offset="0.128" stop-color="#3771C8"/>
<stop offset="1" stop-color="#6600FF" stop-opacity="0"/>
</radialGradient>
</defs>
</svg>
