<svg width="85" height="84" viewBox="0 0 85 84" fill="none" xmlns="http://www.w3.org/2000/svg">
<path d="M83 42C83 64.0691 64.8899 82 42.5 82C20.1101 82 2 64.0691 2 42C2 19.9309 20.1101 2 42.5 2C64.8899 2 83 19.9309 83 42Z" stroke="black" stroke-width="4"/>
<path d="M75 42C75 59.6457 60.4769 74 42.5 74C24.5231 74 10 59.6457 10 42C10 24.3543 24.5231 10 42.5 10C60.4769 10 75 24.3543 75 42Z" stroke="black" stroke-width="4"/>
<path d="M72 42C72 58.0007 58.808 71 42.5 71C26.192 71 13 58.0007 13 42C13 25.9993 26.192 13 42.5 13C58.808 13 72 25.9993 72 42Z" stroke="black" stroke-width="2"/>
<path d="M72 42C72 58.0007 58.808 71 42.5 71C26.192 71 13 58.0007 13 42C13 25.9993 26.192 13 42.5 13C58.808 13 72 25.9993 72 42Z" stroke="black" stroke-width="2"/>
<path d="M72 42C72 58.0007 58.808 71 42.5 71C26.192 71 13 58.0007 13 42C13 25.9993 26.192 13 42.5 13C58.808 13 72 25.9993 72 42Z" stroke="black" stroke-width="2"/>
<path d="M72 42C72 58.0007 58.808 71 42.5 71C26.192 71 13 58.0007 13 42C13 25.9993 26.192 13 42.5 13C58.808 13 72 25.9993 72 42Z" stroke="#43879D" stroke-width="2"/>
<path d="M70 42C70 56.8951 57.7046 69 42.5 69C27.2954 69 15 56.8951 15 42C15 27.1049 27.2954 15 42.5 15C57.7046 15 70 27.1049 70 42Z" stroke="black" stroke-width="2"/>
<path d="M70 42C70 56.8951 57.7046 69 42.5 69C27.2954 69 15 56.8951 15 42C15 27.1049 27.2954 15 42.5 15C57.7046 15 70 27.1049 70 42Z" stroke="black" stroke-width="2"/>
<path d="M70 42C70 56.8951 57.7046 69 42.5 69C27.2954 69 15 56.8951 15 42C15 27.1049 27.2954 15 42.5 15C57.7046 15 70 27.1049 70 42Z" stroke="black" stroke-width="2"/>
<path d="M70 42C70 56.8951 57.7046 69 42.5 69C27.2954 69 15 56.8951 15 42C15 27.1049 27.2954 15 42.5 15C57.7046 15 70 27.1049 70 42Z" stroke="black" stroke-width="2"/>
<ellipse cx="42.5" cy="42" rx="24.5" ry="24" fill="black"/>
<path d="M79 42C79 61.8577 62.6831 78 42.5 78C22.3169 78 6 61.8577 6 42C6 22.1423 22.3169 6 42.5 6C62.6831 6 79 22.1423 79 42Z" stroke="white" stroke-width="4"/>
<path d="M68 42C68 55.7892 56.6013 67 42.5 67C28.3987 67 17 55.7892 17 42C17 28.2108 28.3987 17 42.5 17C56.6013 17 68 28.2108 68 42Z" stroke="black" stroke-width="2"/>
<path d="M68 42C68 55.7892 56.6013 67 42.5 67C28.3987 67 17 55.7892 17 42C17 28.2108 28.3987 17 42.5 17C56.6013 17 68 28.2108 68 42Z" stroke="black" stroke-width="2"/>
<path d="M68 42C68 55.7892 56.6013 67 42.5 67C28.3987 67 17 55.7892 17 42C17 28.2108 28.3987 17 42.5 17C56.6013 17 68 28.2108 68 42Z" stroke="black" stroke-width="2"/>
<path d="M68 42C68 55.7892 56.6013 67 42.5 67C28.3987 67 17 55.7892 17 42C17 28.2108 28.3987 17 42.5 17C56.6013 17 68 28.2108 68 42Z" stroke="#43879D" stroke-width="2"/>
<path d="M46.3472 17.1544C59.6765 29.3026 63.1698 47.7158 47.6567 66.1369" stroke="#43879D"/>
<path d="M38.8232 67.4163C30.0779 54.5801 24.7274 36.1784 37.8831 17.9252" stroke="#43879D"/>
<path d="M60.194 24.4358C50.7836 29.5582 37.5804 32.2566 25.2219 23" stroke="#43879D"/>
<path d="M18.5 49.5C27.0529 43.0466 53.4118 41.1661 67.0001 48.4999" stroke="#43879D"/>
<path d="M17.9999 40.562C27.5 41.5 49.5 42.5 67.8655 40.562" stroke="#43879D"/>
<path d="M24.5002 60C29.0001 56 47.6963 50.6475 61 60" stroke="#43879D"/>
<circle cx="42.5" cy="29.5" r="2.5" fill="white"/>
<path d="M46.5 33.5C46 33.5 39.5 33.5002 38.5 33.5C37.5 33.4998 37 35 37 35.5V44.5H38.5V37H40L40.3235 58.2669H40.5H42V45H43.1682V58.2669H45V37H45.5H46.5V44.5L48 44.5L48 43.5V36C48 34 47 33.5 46.5 33.5Z" fill="white"/>
</svg>
