<svg width="71" height="76" viewBox="0 0 71 76" fill="none" xmlns="http://www.w3.org/2000/svg">
<path d="M52.6191 27.1719C57.7995 30.6445 64.1458 32.6877 71 32.6877V20.3197C69.7027 20.3199 68.409 20.1929 67.1398 19.9408V29.6762C60.2862 29.6762 53.9407 27.6333 48.7592 24.161V49.4007C48.7592 62.0271 37.8438 72.2618 24.38 72.2618C19.3564 72.2618 14.6869 70.8377 10.8081 68.3951C15.2352 72.6399 21.409 75.273 28.2391 75.273C41.7039 75.273 52.6197 65.0383 52.6197 52.4114V27.1719H52.6191ZM57.3812 14.6941C54.7336 11.9819 52.9952 8.47679 52.6191 4.60168V3.01099H48.9611C49.8819 7.93606 53.0229 12.1437 57.3812 14.6941ZM19.3239 58.7062C17.8448 56.8877 17.0452 54.6628 17.0488 52.3752C17.0488 46.6005 22.0414 41.9182 28.2011 41.9182C29.3488 41.9177 30.4898 42.083 31.5839 42.4082V29.7636C30.3053 29.5994 29.0151 29.5294 27.7254 29.5552V39.397C26.6308 39.0715 25.4892 38.9063 24.3409 38.9073C18.1815 38.9073 13.1892 43.5891 13.1892 49.3645C13.1892 53.4483 15.6845 56.9839 19.3239 58.7062Z" fill="#FF004F"/>
<path d="M48.7592 24.1607C53.9409 27.633 60.2859 29.6759 67.1398 29.6759V19.9405C63.314 19.1763 59.9273 17.3017 57.3809 14.6941C53.0224 12.1435 49.8819 7.9358 48.9611 3.01099H39.3528V52.4109C39.3309 58.1699 34.3469 62.833 28.2005 62.833C24.5789 62.833 21.361 61.2142 19.3233 58.706C15.6845 56.9839 13.1889 53.4481 13.1889 49.3648C13.1889 43.5899 18.1812 38.9076 24.3406 38.9076C25.5208 38.9076 26.6582 39.0798 27.7251 39.3973V29.5555C14.4977 29.8118 3.85989 39.9466 3.85989 52.4111C3.85989 58.6334 6.50888 64.274 10.8084 68.3956C14.6871 70.8377 19.3563 72.2624 24.3803 72.2624C37.8443 72.2624 48.7595 62.0268 48.7595 49.4007L48.7592 24.1607Z" fill="black"/>
<path d="M67.1398 19.9402V17.3084C63.6898 17.3133 60.308 16.4073 57.381 14.694C59.972 17.354 63.3838 19.1883 67.1398 19.9407M48.9608 3.01068C48.8731 2.54011 48.8057 2.06639 48.7589 1.59069V0H35.4921V49.4004C35.471 55.1589 30.487 59.822 24.3404 59.822C22.5978 59.8244 20.8791 59.4423 19.3231 58.7064C21.3608 61.2141 24.5786 62.8327 28.2003 62.8327C34.3464 62.8327 39.3309 58.1701 39.3526 52.4111V3.01094L48.9608 3.01068ZM27.7257 29.5552V26.7529C26.6171 26.6107 25.4995 26.5396 24.3806 26.54C10.9152 26.54 0 36.7753 0 49.4004C0 57.3159 4.28979 64.2917 10.8087 68.395C6.50916 64.2737 3.86018 58.6328 3.86018 52.4108C3.86018 39.9466 14.4977 29.8115 27.7257 29.5552Z" fill="#00F2EA"/>
</svg>
